<?xml version="1.0" encoding="UTF-8" standalone="no"?>
<svg
   width="245.9856pt"
   height="71.999992pt"
   viewBox="0 0 86.778243 25.399993"
   version="1.1"
   id="svg1"
   sodipodi:docname="pavona-logo-lockup.svg"
   inkscape:export-filename="pavona-logo-lockup.png"
   inkscape:export-xdpi="72"
   inkscape:export-ydpi="72"
   inkscape:version="1.4 (e7c3feb1, 2024-10-09)"
   xmlns:inkscape="http://www.inkscape.org/namespaces/inkscape"
   xmlns:sodipodi="http://sodipodi.sourceforge.net/DTD/sodipodi-0.dtd"
   xmlns="http://www.w3.org/2000/svg"
   xmlns:svg="http://www.w3.org/2000/svg">
  <defs
     id="defs1" />
  <sodipodi:namedview
     id="namedview1"
     pagecolor="#ffffff"
     bordercolor="#000000"
     borderopacity="0.25"
     inkscape:showpageshadow="2"
     inkscape:pageopacity="0.0"
     inkscape:pagecheckerboard="0"
     inkscape:deskcolor="#d1d1d1"
     inkscape:zoom="1.7314933"
     inkscape:cx="189.72063"
     inkscape:cy="68.149267"
     inkscape:window-width="1512"
     inkscape:window-height="793"
     inkscape:window-x="1920"
     inkscape:window-y="364"
     inkscape:window-maximized="0"
     inkscape:current-layer="svg1"
     inkscape:document-units="pt" />
  <path
     fill="#ea5732"
     stroke="none"
     d="m 11.952707,0 c -0.6708,0.0055 -1.116661,0.55089 -1.277861,1.161768 -0.303714,1.150904 -0.26957,2.399789 -0.26957,3.580343 0,0.434289 0.04314,0.888481 -0.107657,1.304702 -0.06914,0.190973 -0.241157,0.41101 -0.4688396,0.383129 C 9.3575874,6.372302 9.0610654,5.67259 8.9201334,5.288266 8.5085044,4.16573 8.6419664,2.679095 7.7603574,1.771341 7.1715294,1.165054 5.9640111,1.278503 5.8592601,2.254078 c -0.08043,0.749253 0.5261168,1.468225 0.8508638,2.093586 0.4853695,0.934683 0.8164095,1.916863 1.4202855,2.7914595 0.480435,0.695814 1.171979,1.208811 1.637568,1.91153 0.7591546,1.1458135 0.8241236,2.6256545 0.9797236,3.9444545 0.110089,0.933323 0.0603,2.056709 -0.149794,2.973503 -0.06495,0.283567 -0.156855,0.792159 -0.465831,0.909503 -0.1843446,0.07003 -0.3644856,-0.09228 -0.4849046,-0.212117 -0.326008,-0.324391 -0.516051,-0.767043 -0.607161,-1.213204 -0.253638,-1.241936 0.272867,-2.356373 0.302851,-3.580343 0.01158,-0.472458 -0.07037,-1.113719 -0.576049,-1.32038 -0.422971,-0.172872 -0.842677,0.124079 -0.964568,0.531495 -0.20405,0.681975 0.126309,1.355485 0.172962,2.032902 0.01815,0.263009 2.31e-4,0.999407 -0.452412,0.723707 C 7.1819064,13.632583 6.9726904,13.170481 6.8311174,12.813052 6.3532689,11.606685 6.7178919,10.24641 7.0502034,9.0506535 7.2223124,8.4313445 7.3972874,7.6300025 7.0206634,7.0481125 6.7278699,6.595734 6.0561191,6.534816 5.8199721,7.0784325 c -0.277458,0.63877 -0.0156,1.29231 -0.113863,1.941878 -0.05024,0.332026 -0.293662,0.548235 -0.577517,0.269892 C 4.7724481,8.9409615 4.7268971,8.3337455 4.6578481,7.8673165 4.5012971,6.809658 4.5013621,5.700144 4.1443551,4.68142 3.9353041,4.084858 3.3173341,3.314562 2.6073906,3.7216 c -0.383052,0.219617 -0.490227,0.641414 -0.485359,1.050842 0.00997,0.810658 0.5492195,1.567435 0.9359225,2.2453045 0.131649,0.23077 0.369896,0.571469 0.356255,0.849569 -0.01,0.203497 -0.214074,0.391792 -0.412371,0.319413 -0.523651,-0.19115 -0.807958,-0.782699 -1.33505,-0.970286 -0.76352554,-0.271739 -1.16160204,0.572961 -0.92183804,1.197028 0.2155565,0.561069 0.72910654,0.865379 1.22526354,1.148425 0.7965625,0.4544145 1.6609015,0.8270655 2.3362045,1.4636895 0.628669,0.592667 0.931829,1.475969 1.283836,2.242584 0.344117,0.749431 0.7684148,1.456851 1.2058363,2.154283 0.403298,0.643028 0.846016,1.270203 1.142858,1.972214 0.08443,0.199635 0.263796,0.607691 0.107439,0.808786 -0.21247,0.273324 -0.808091,-0.01981 -1.039436,-0.133858 -0.8935473,-0.44045 -1.6251323,-1.241959 -2.0554053,-2.131334 -0.173413,-0.358425 -0.27853,-0.783895 -0.27853,-1.183332 0,-0.424874 0.119449,-0.849615 0.02754,-1.274354 -0.09139,-0.422075 -0.347847,-0.808878 -0.818791,-0.797582 -0.771691,0.01848 -0.594857,0.796509 -0.640031,1.313389 -0.01627,0.186578 -0.170272,0.351209 -0.361134,0.241987 C 2.6653651,14.115188 2.5481106,13.846238 2.4466886,13.632275 2.1434841,12.992639 2.1538841,12.184207 1.7511391,11.599361 1.4045756,11.09609 0.75030506,10.946142 0.30425556,11.417782 c -0.385873,0.408022 -0.345291,1.076068 -0.2022465,1.577314 0.342149,1.199009 1.40606854,2.099771 2.35369654,2.839256 0.3613335,0.281961 1.1852565,0.737613 1.0853725,1.28721 -0.06738,0.3711 -0.548611,0.213575 -0.781958,0.130556 -0.563636,-0.200577 -1.80016254,-1.023559 -2.15022204,-0.06982 -0.0385,0.104987 -0.03972,0.223368 -0.031645,0.333762 0.057975,0.790146 1.01906754,1.203391 1.66606904,1.406079 0.970198,0.303935 1.980137,0.174942 2.973503,0.301735 0.832786,0.106325 1.6366943,0.443361 2.3059773,0.946353 0.166753,0.125324 0.337126,0.262003 0.48276,0.411555 0.635772,0.652908 1.467894,2.064786 0.730799,2.911192 -0.35932,0.412613 -0.862082,0.466615 -1.304559,0.742835 -0.225003,0.140445 -0.379544,0.414374 -0.317719,0.683666 0.147462,0.642334 1.258798,0.455134 1.74377,0.455134 1.1627636,0 2.3246886,-0.04402 3.4893106,-0.03021 0.739396,0.009 1.505543,0.09671 2.245304,0.02511 0.469482,-0.04548 0.966326,-0.436744 0.617483,-0.935456 -0.328773,-0.470015 -0.957994,-0.435065 -1.373319,-0.779193 -0.940371,-0.77917 -0.05332,-2.000947 0.634466,-2.584676 0.933344,-0.792193 2.281472,-1.148082 3.48931,-1.095187 0.867657,0.03795 1.7106,0.215569 2.579067,0.08153 0.673465,-0.104006 1.793588,-0.539782 1.592063,-1.41774 -0.219816,-0.957575 -1.438366,-0.354496 -2.016848,-0.209207 -0.228689,0.05742 -0.801619,0.185851 -0.739627,-0.245916 0.05996,-0.417537 0.611476,-0.719424 0.921672,-0.9406 1.003234,-0.715332 2.196757,-1.538836 2.609292,-2.761112 0.193073,-0.572078 0.156345,-1.454196 -0.576381,-1.6224 -0.519147,-0.119163 -1.003698,0.220812 -1.2917,0.621123 -0.576592,0.801419 -0.771869,1.809046 -1.406411,2.579057 -0.251238,0.304886 -0.569634,0.633901 -0.942914,0.786052 -0.122615,0.05 -0.296169,0.119414 -0.423481,0.05344 -0.288944,-0.149776 -0.164101,-0.498801 -0.05442,-0.718107 0.261439,-0.522867 0.72062,-0.991087 0.72062,-1.608128 0,-0.325843 -0.150689,-0.65883 -0.51576,-0.694676 -0.642788,-0.06308 -1.086966,0.616917 -1.342443,1.119471 -0.364818,0.717623 -0.557704,1.505023 -0.94256,2.214957 -0.393784,0.726373 -0.973605,1.320266 -1.629103,1.816581 -0.436138,0.330211 -0.883758,0.693867 -1.395725,0.900441 -0.210014,0.08473 -0.503714,0.138328 -0.627529,-0.108103 -0.133756,-0.266207 -0.0056,-0.728851 0.0624,-1.000811 0.226887,-0.907555 0.709724,-1.71495 1.26682,-2.457697 1.211832,-1.615629 2.713748,-3.040207 4.577791,-3.857626 1.12903,-0.495105 2.335564,-0.759698 3.36795,-1.462637 0.46215,-0.314679 0.956161,-0.753249 1.150244,-1.2942595 0.274017,-0.763869 -0.235473,-1.793347 -1.150252,-1.442248 -1.045918,0.401429 -1.367577,1.582603 -2.214966,2.2271825 -0.22921,0.174355 -0.966216,0.633902 -1.016468,0.03431 -0.04382,-0.521948 0.411055,-1.1397525 0.682717,-1.5474325 C 19.804922,8.1193055 20.483654,7.2111755 20.88536,6.198647 21.139781,5.557345 21.272071,4.61464 20.600177,4.173304 20.120351,3.858129 19.485772,4.237694 19.182889,4.620991 18.714635,5.213514 18.691567,6.04402 18.502,6.744803 18.41548,7.0644715 18.311813,7.4540065 18.050241,7.6784695 17.829242,7.8681135 17.63765,7.6665295 17.567648,7.4426655 17.433187,7.0127585 17.521738,6.547801 17.295788,6.137964 17.027213,5.650735 16.376648,5.446707 16.007549,5.95603 c -0.406054,0.560316 -0.09759,1.2722745 0.153348,1.8203975 0.351853,0.768416 0.686368,1.673813 0.41381,2.5183715 -0.09227,0.285922 -0.226496,0.630118 -0.495493,0.796717 -0.362207,0.224318 -0.558734,-0.325519 -0.604262,-0.584325 -0.10987,-0.6246975 0.0161,-1.3013055 -0.299862,-1.8811945 -0.189224,-0.347382 -0.610069,-0.56171 -0.977047,-0.333917 -0.518019,0.321537 -0.554573,1.087818 -0.393673,1.608282 0.354398,1.1463465 0.997736,2.1919885 0.430639,3.3982905 -0.209361,0.445351 -0.538611,0.89524 -0.947219,1.176636 -0.155008,0.106765 -0.382288,0.241081 -0.576382,0.166235 -0.282979,-0.109085 -0.253206,-0.462978 -0.281862,-0.705685 -0.08153,-0.690306 -0.02147,-1.399321 -0.08751,-2.093588 -0.07116,-0.747558 -0.183713,-1.494268 -0.07723,-2.2453135 C 12.50322,7.9153895 13.724965,6.730288 14.810006,5.531124 15.488433,4.781339 16.279983,4.132567 16.847758,3.28583 17.099669,2.910125 17.3475,2.444061 17.208372,1.981128 16.955154,1.138574 15.95286,1.400079 15.442032,1.780209 14.560002,2.43656 14.329021,3.660828 13.661995,4.499499 13.39031,4.841106 12.891984,5.22668 12.548896,4.742118 12.337089,4.442976 12.402843,4.017771 12.456066,3.680268 c 0.129425,-0.820183 0.55891,-1.552642 0.55859,-2.397 C 13.014424,0.661901 12.652671,-0.006088 11.952684,1.3e-4 Z"
     id="path1"
     style="stroke-width:0.114678" />
  <path
     d="M 28.590055,18.848679 V 6.3499939 h 5.116911 q 1.442801,0 2.499737,0.5200796 1.056936,0.511691 1.627345,1.459578 0.578799,0.947887 0.578799,2.2480855 0,1.291811 -0.578799,2.239697 -0.578798,0.947887 -1.644122,1.467967 -1.056935,0.520079 -2.499737,0.520079 h -3.388905 v -2.508125 h 3.195973 q 0.603963,0 1.040159,-0.20971 0.444584,-0.209709 0.687847,-0.595574 0.243263,-0.394254 0.243263,-0.914334 0,-0.536856 -0.243263,-0.9143335 Q 34.982,9.2775385 34.537416,9.0678285 34.10122,8.8497305 33.497257,8.8497305 h -1.887386 v 9.9989485 z m 13.33418,0.15099 q -0.889168,0 -1.577015,-0.285204 -0.679458,-0.293594 -1.073712,-0.872393 -0.385866,-0.587185 -0.385866,-1.467966 0,-0.746566 0.268428,-1.249868 0.268429,-0.511691 0.738178,-0.83045 0.478137,-0.318758 1.098877,-0.478138 0.629129,-0.167767 1.333753,-0.226486 0.788507,-0.06711 1.266645,-0.142602 0.478137,-0.08388 0.687847,-0.226486 0.209709,-0.150991 0.209709,-0.419419 v -0.04194 q 0,-0.268428 -0.150991,-0.461361 -0.15099,-0.201321 -0.427807,-0.31037 -0.276816,-0.117437 -0.654293,-0.117437 -0.402643,0 -0.696236,0.125825 -0.293593,0.117438 -0.461361,0.343924 -0.167767,0.218098 -0.201321,0.520079 h -2.684281 q 0.06711,-0.964663 0.562021,-1.644122 0.494915,-0.687847 1.392471,-1.048547 0.905945,-0.3690885 2.189367,-0.3690885 0.964664,0 1.702841,0.2097085 0.746566,0.201322 1.258257,0.603964 0.511691,0.394254 0.771731,0.973052 0.260039,0.570409 0.260039,1.300198 V 18.84868 H 44.533021 V 17.6072 h -0.03355 q -0.268428,0.478137 -0.629129,0.788507 -0.3607,0.301982 -0.838838,0.452973 -0.478137,0.15099 -1.107266,0.15099 z m 0.88078,-1.887386 q 0.478138,0 0.864003,-0.184543 0.394254,-0.184544 0.62074,-0.503303 0.226486,-0.327147 0.226486,-0.763342 v -0.805286 q -0.117437,0.05033 -0.276816,0.100661 -0.159379,0.05033 -0.3607,0.09227 -0.192933,0.04194 -0.427808,0.08388 -0.234874,0.04194 -0.503302,0.09227 -0.385866,0.05872 -0.687847,0.184544 -0.293594,0.125826 -0.46975,0.335535 -0.167767,0.201322 -0.167767,0.494915 0,0.276816 0.150991,0.469749 0.15099,0.192933 0.41103,0.301982 0.268428,0.10066 0.62074,0.10066 z m 8.259212,1.736396 -3.229526,-8.8581285 h 3.019816 l 1.283422,4.0767525 q 0.26004,0.847225 0.494914,1.686064 0.234875,0.838837 0.461361,1.686064 h -0.687847 q 0.226486,-0.847226 0.452973,-1.686064 0.226486,-0.838838 0.469749,-1.686064 l 1.258257,-4.0767525 h 2.986262 L 54.344083,18.848679 Z M 62.418387,19.05 q -1.384083,0 -2.441019,-0.57041 -1.048547,-0.57041 -1.635733,-1.610569 -0.587187,-1.040159 -0.587187,-2.449406 0,-1.40086 0.587187,-2.441019 0.587186,-1.040158 1.635733,-1.610568 1.056936,-0.5787985 2.441019,-0.5787985 1.39247,0 2.432629,0.5787985 1.048548,0.57041 1.635734,1.610568 0.587187,1.040159 0.587187,2.441019 0,1.409247 -0.587187,2.449406 -0.587186,1.040158 -1.635734,1.610568 -1.040159,0.57041 -2.432629,0.570411 z m 0,-2.298416 q 0.503302,0 0.889168,-0.268428 0.394254,-0.276818 0.62074,-0.796896 0.226486,-0.52008 0.226486,-1.266645 0,-0.746566 -0.226486,-1.266646 -0.226486,-0.520079 -0.62074,-0.788507 -0.385866,-0.276817 -0.889168,-0.276817 -0.503303,0 -0.897557,0.276817 -0.394254,0.268428 -0.62074,0.788507 -0.218098,0.52008 -0.218098,1.266646 0,0.746565 0.218098,1.266645 0.226486,0.520078 0.62074,0.796896 0.394254,0.268428 0.897557,0.268428 z m 8.782635,-2.717835 v 4.81493 H 68.31542 V 9.9905505 h 2.852049 v 2.3739115 h -0.427808 q 0.411031,-1.174373 1.19115,-1.870609 0.780119,-0.6962355 2.055153,-0.6962355 0.964663,0 1.644122,0.4194195 0.679459,0.411031 1.040159,1.19115 0.3607,0.780119 0.3607,1.870608 v 5.569884 h -2.885602 v -4.965921 q 0,-0.788507 -0.377477,-1.199538 -0.377477,-0.419419 -1.065324,-0.419419 -0.452973,0 -0.796896,0.192933 -0.335535,0.192933 -0.52008,0.587186 -0.184544,0.385865 -0.184544,0.989829 z m 10.149936,4.96592 q -0.889168,0 -1.577015,-0.285204 -0.679459,-0.293594 -1.073713,-0.872393 -0.385865,-0.587185 -0.385865,-1.467966 0,-0.746566 0.268428,-1.249868 0.268428,-0.511691 0.738177,-0.83045 0.478138,-0.318758 1.098878,-0.478138 0.629128,-0.167767 1.333752,-0.226486 0.788508,-0.06711 1.266645,-0.142602 0.478138,-0.08388 0.687847,-0.226486 0.20971,-0.150991 0.20971,-0.419419 v -0.04194 q 0,-0.268428 -0.150991,-0.461361 -0.150991,-0.201321 -0.427807,-0.31037 -0.276817,-0.117437 -0.654294,-0.117437 -0.402642,0 -0.696235,0.125825 -0.293594,0.117438 -0.461361,0.343924 -0.167768,0.218098 -0.201321,0.520079 h -2.684281 q 0.06711,-0.964663 0.562021,-1.644122 0.494914,-0.687847 1.392471,-1.048547 0.905945,-0.3690885 2.189367,-0.3690885 0.964663,0 1.702841,0.2097085 0.746565,0.201322 1.258256,0.603964 0.511691,0.394254 0.771731,0.973052 0.26004,0.570409 0.26004,1.300198 V 18.84868 H 83.959744 V 17.6072 h -0.03355 q -0.268428,0.478137 -0.629128,0.788507 -0.360701,0.301982 -0.838838,0.452973 -0.478138,0.15099 -1.107266,0.15099 z m 0.88078,-1.887386 q 0.478137,0 0.864003,-0.184543 0.394253,-0.184544 0.62074,-0.503303 0.226486,-0.327147 0.226486,-0.763342 v -0.805286 q -0.117437,0.05033 -0.276817,0.100661 -0.159379,0.05033 -0.3607,0.09227 -0.192933,0.04194 -0.427807,0.08388 -0.234875,0.04194 -0.503303,0.09227 -0.385865,0.05872 -0.687847,0.184544 -0.293593,0.125826 -0.469749,0.335535 -0.167768,0.201322 -0.167768,0.494915 0,0.276816 0.150991,0.469749 0.150991,0.192933 0.411031,0.301982 0.268428,0.10066 0.62074,0.10066 z"
     id="text1"
     style="font-size:17.1794px;font-family:Inter;-inkscape-font-specification:'Inter, @opsz=32,wght=800';font-variation-settings:'opsz' 32, 'wght' 800; color-scheme: light dark; fill: light-dark(#1e364f, #ffffff); stroke-width:0.178951"
     aria-label="Pavona" />
</svg>
