<?xml version="1.0" encoding="UTF-8" standalone="no"?>
<svg
   version="1.1"
   viewBox="0.0 0.0 781.8530183727034 323.0524934383202"
   fill="none"
   stroke="none"
   stroke-linecap="square"
   stroke-miterlimit="10"
   id="svg89"
   sodipodi:docname="img_ate_setup.svg"
   inkscape:version="1.4.2 (ebf0e940, 2025-05-08)"
   xmlns:inkscape="http://www.inkscape.org/namespaces/inkscape"
   xmlns:sodipodi="http://sodipodi.sourceforge.net/DTD/sodipodi-0.dtd"
   xmlns="http://www.w3.org/2000/svg"
   xmlns:svg="http://www.w3.org/2000/svg">
  <defs
     id="defs89">
    <rect
       x="643.17596"
       y="37.147839"
       width="113.17132"
       height="83.366663"
       id="rect90" />
    <rect
       x="644.22332"
       y="22.041855"
       width="146.56629"
       height="81.862744"
       id="rect89" />
  </defs>
  <sodipodi:namedview
     id="namedview89"
     pagecolor="#ffffff"
     bordercolor="#000000"
     borderopacity="0.25"
     inkscape:showpageshadow="2"
     inkscape:pageopacity="0.0"
     inkscape:pagecheckerboard="0"
     inkscape:deskcolor="#d1d1d1"
     inkscape:zoom="0.87480674"
     inkscape:cx="460.67318"
     inkscape:cy="43.438166"
     inkscape:window-width="1512"
     inkscape:window-height="917"
     inkscape:window-x="0"
     inkscape:window-y="65"
     inkscape:window-maximized="0"
     inkscape:current-layer="g89" />
  <clipPath
     id="p.0">
    <path
       d="m0 0l781.853 0l0 323.0525l-781.853 0l0 -323.0525z"
       clip-rule="nonzero"
       id="path1" />
  </clipPath>
  <g
     clip-path="url(#p.0)"
     id="g89">
    <path
       fill="#000000"
       fill-opacity="0.0"
       d="m0 0l781.853 0l0 323.0525l-781.853 0z"
       fill-rule="evenodd"
       id="path2" />
    <path
       fill="#ffffff"
       d="m638.1942 12.944881l127.49609 0l0 127.49606l-127.49609 0z"
       fill-rule="evenodd"
       id="path3" />
    <path
       stroke="#000000"
       stroke-width="1.0"
       stroke-linejoin="round"
       stroke-linecap="butt"
       d="m638.1942 12.944881l127.49609 0l0 127.49606l-127.49609 0z"
       fill-rule="evenodd"
       id="path4" />
    <path
       fill="#000000"
       fill-opacity="0.0"
       d="m681.67194 56.422573l40.54065 0l0 40.54069l-40.54065 0z"
       fill-rule="nonzero"
       id="path6" />
    <path
       fill="#f3f3f3"
       d="m428.26117 15.317585l127.49603 0l0 127.49606l-127.49603 0z"
       fill-rule="evenodd"
       id="path9" />
    <path
       stroke="#000000"
       stroke-width="1.0"
       stroke-linejoin="round"
       stroke-linecap="butt"
       d="m428.26117 15.317585l127.49603 0l0 127.49606l-127.49603 0z"
       fill-rule="evenodd"
       id="path10" />
    <path
       fill="#000000"
       d="m483.1377 82.54812l1.046875 3.4375l1.671875 0l-4.203125 -13.265625l-1.421875 0l-4.28125 13.265625l1.6875 0l1.0625 -3.4375l4.4375 0zm-3.984375 -1.46875l1.78125 -5.75l1.75 5.75l-3.53125 0zm17.789337 -6.921875l0 -1.4375l-9.84375 0l0 1.4375l4.109375 0l0 11.828125l1.640625 0l0 -11.828125l4.09375 0zm9.539307 5.703125l0 -1.4375l-5.53125 0l0 -4.265625l6.375 0l0 -1.4375l-8.0625 0l0 13.265625l8.140625 0l0 -1.4375l-6.453125 0l0 -4.6875l5.53125 0z"
       fill-rule="nonzero"
       id="path11" />
    <path
       fill="#000000"
       d="m465.58276 107.98562l4.25 0q0.84375 -0.015625 1.640625 -0.265625q0.796875 -0.25 1.40625 -0.734375q0.609375 -0.46875 0.96875 -1.171875q0.375 -0.71875 0.359375 -1.65625q0 -0.59375 -0.171875 -1.09375q-0.171875 -0.515625 -0.5 -0.921875q-0.296875 -0.375 -0.765625 -0.6875q-0.453125 -0.3125 -0.96875 -0.421875l0 -0.03125q0.484375 -0.21875 0.828125 -0.453125q0.34375 -0.234375 0.625 -0.578125q0.28125 -0.34375 0.4375 -0.765625q0.15625 -0.421875 0.171875 -0.953125q0 -0.921875 -0.359375 -1.578125q-0.359375 -0.671875 -0.96875 -1.109375q-0.625 -0.421875 -1.40625 -0.625q-0.78125 -0.203125 -1.59375 -0.21875l-3.953125 0l0 13.265625zm1.703125 -6.203125l2.6875 0q0.53125 0.015625 1.0 0.1875q0.46875 0.15625 0.8125 0.453125q0.34375 0.3125 0.53125 0.75q0.203125 0.4375 0.1875 1.0q0 0.5625 -0.21875 1.0q-0.203125 0.4375 -0.5625 0.734375q-0.375 0.296875 -0.84375 0.46875q-0.46875 0.171875 -1.0 0.171875l-2.59375 0l0 -4.765625zm0 -1.40625l0 -4.21875l2.296875 0q0.5 0.015625 0.96875 0.140625q0.46875 0.109375 0.828125 0.359375q0.359375 0.25 0.5625 0.640625q0.21875 0.390625 0.21875 0.953125q0 0.515625 -0.21875 0.90625q-0.21875 0.390625 -0.578125 0.65625q-0.34375 0.28125 -0.8125 0.421875q-0.453125 0.140625 -0.921875 0.140625l-2.34375 0zm9.039307 2.59375l0 0.203125q0 1.0625 0.3125 1.96875q0.3125 0.90625 0.890625 1.59375q0.578125 0.671875 1.40625 1.0625q0.84375 0.375 1.890625 0.375q1.03125 0 1.859375 -0.375q0.828125 -0.390625 1.40625 -1.0625q0.578125 -0.6875 0.890625 -1.59375q0.3125 -0.90625 0.3125 -1.96875l0 -0.203125q0 -1.0625 -0.3125 -1.984375q-0.3125 -0.921875 -0.890625 -1.59375q-0.578125 -0.671875 -1.421875 -1.046875q-0.828125 -0.390625 -1.875 -0.390625q-1.03125 0 -1.859375 0.390625q-0.828125 0.375 -1.40625 1.046875q-0.578125 0.671875 -0.890625 1.59375q-0.3125 0.921875 -0.3125 1.984375zm1.6875 0.203125l0 -0.203125q0 -0.71875 0.171875 -1.375q0.171875 -0.671875 0.53125 -1.171875q0.34375 -0.5 0.859375 -0.796875q0.515625 -0.296875 1.21875 -0.296875q0.703125 0 1.21875 0.296875q0.53125 0.296875 0.890625 0.796875q0.34375 0.5 0.515625 1.171875q0.1875 0.65625 0.1875 1.375l0 0.203125q0 0.71875 -0.171875 1.390625q-0.171875 0.65625 -0.515625 1.15625q-0.359375 0.5 -0.890625 0.796875q-0.515625 0.28125 -1.203125 0.28125q-0.703125 0 -1.234375 -0.28125q-0.53125 -0.296875 -0.875 -0.796875q-0.359375 -0.5 -0.53125 -1.15625q-0.171875 -0.671875 -0.171875 -1.390625zm16.461212 4.8125l1.75 0l0 -0.140625q-0.15625 -0.421875 -0.25 -0.96875q-0.09375 -0.546875 -0.09375 -1.046875l0 -4.578125q0 -0.828125 -0.296875 -1.4375q-0.296875 -0.625 -0.8125 -1.046875q-0.53125 -0.40625 -1.25 -0.609375q-0.71875 -0.203125 -1.5625 -0.203125q-0.921875 0 -1.65625 0.25q-0.71875 0.25 -1.21875 0.65625q-0.5 0.421875 -0.78125 0.953125q-0.265625 0.515625 -0.265625 1.046875l1.6875 0q0 -0.3125 0.140625 -0.59375q0.15625 -0.28125 0.4375 -0.5q0.265625 -0.203125 0.65625 -0.328125q0.40625 -0.140625 0.90625 -0.140625q0.546875 0 0.96875 0.140625q0.4375 0.140625 0.734375 0.390625q0.296875 0.25 0.453125 0.609375q0.171875 0.34375 0.171875 0.796875l0 0.78125l-1.828125 0q-1.03125 0 -1.875 0.203125q-0.828125 0.1875 -1.421875 0.59375q-0.59375 0.40625 -0.921875 1.015625q-0.3125 0.609375 -0.3125 1.421875q0 0.625 0.234375 1.15625q0.25 0.53125 0.6875 0.90625q0.4375 0.40625 1.0625 0.640625q0.640625 0.21875 1.4375 0.21875q0.46875 0 0.890625 -0.109375q0.4375 -0.09375 0.828125 -0.265625q0.375 -0.171875 0.6875 -0.390625q0.3125 -0.234375 0.5625 -0.5q0.03125 0.3125 0.09375 0.609375q0.0625 0.28125 0.15625 0.46875zm-2.984375 -1.28125q-0.484375 0 -0.859375 -0.125q-0.375 -0.140625 -0.625 -0.359375q-0.234375 -0.21875 -0.359375 -0.53125q-0.125 -0.3125 -0.125 -0.671875q0 -0.390625 0.140625 -0.6875q0.140625 -0.296875 0.40625 -0.515625q0.390625 -0.3125 1.03125 -0.453125q0.65625 -0.15625 1.53125 -0.15625l1.5625 0l0 2.0q-0.140625 0.28125 -0.40625 0.5625q-0.25 0.265625 -0.59375 0.46875q-0.34375 0.203125 -0.78125 0.34375q-0.421875 0.125 -0.921875 0.125zm14.164307 -8.75q-1.078125 0 -1.921875 0.46875q-0.84375 0.46875 -1.4375 1.265625l-0.015625 -0.234375l-0.078125 -1.328125l-1.59375 0l0 9.859375l1.6875 0l0 -6.328125q0.171875 -0.453125 0.421875 -0.8125q0.25 -0.375 0.578125 -0.625q0.375 -0.296875 0.875 -0.4375q0.5 -0.15625 1.125 -0.15625q0.484375 0 0.921875 0.046875q0.453125 0.046875 0.9375 0.15625l0.234375 -1.640625q-0.265625 -0.109375 -0.765625 -0.171875q-0.5 -0.0625 -0.96875 -0.0625zm4.414337 5.015625l0 0.203125q0 1.046875 0.28125 1.96875q0.28125 0.90625 0.796875 1.59375q0.5 0.671875 1.21875 1.0625q0.734375 0.375 1.625 0.375q0.921875 0 1.59375 -0.3125q0.6875 -0.3125 1.1875 -0.90625l0.0625 1.03125l1.546875 0l0 -14.0l-1.6875 0l0 5.125q-0.46875 -0.578125 -1.140625 -0.859375q-0.65625 -0.296875 -1.546875 -0.296875q-0.890625 0 -1.625 0.375q-0.734375 0.359375 -1.234375 1.03125q-0.515625 0.65625 -0.796875 1.59375q-0.28125 0.921875 -0.28125 2.015625zm1.6875 0.203125l0 -0.203125q0 -0.71875 0.15625 -1.359375q0.15625 -0.65625 0.484375 -1.15625q0.3125 -0.5 0.8125 -0.78125q0.515625 -0.296875 1.21875 -0.296875q0.828125 0 1.375 0.390625q0.5625 0.390625 0.890625 0.984375l0 4.578125q-0.328125 0.640625 -0.890625 1.03125q-0.546875 0.375 -1.390625 0.375q-0.703125 0 -1.203125 -0.28125q-0.5 -0.296875 -0.8125 -0.78125q-0.328125 -0.5 -0.484375 -1.140625q-0.15625 -0.640625 -0.15625 -1.359375z"
       fill-rule="nonzero"
       id="path12" />
    <path
       fill="#d9ead3"
       d="m226.32808 12.944881l127.49608 0l0 127.49606l-127.49608 0z"
       fill-rule="evenodd"
       id="path13" />
    <path
       stroke="#000000"
       stroke-width="1.0"
       stroke-linejoin="round"
       stroke-linecap="butt"
       d="m226.32808 12.944881l127.49608 0l0 127.49606l-127.49608 0z"
       fill-rule="evenodd"
       id="path14" />
    <path
       fill="#000000"
       d="m244.54013 55.816036l1.859375 0q0.640625 -0.015625 1.203125 -0.203125q0.578125 -0.1875 1.0 -0.546875q0.4375 -0.359375 0.6875 -0.875q0.25 -0.53125 0.25 -1.203125q0 -0.6875 -0.25 -1.21875q-0.25 -0.53125 -0.6875 -0.890625q-0.421875 -0.34375 -1.0 -0.53125q-0.5625 -0.203125 -1.203125 -0.203125l-3.0625 0l0 9.46875l1.203125 0l0 -3.796875zm0 -1.0l0 -3.6875l1.859375 0q0.421875 0 0.765625 0.140625q0.359375 0.125 0.625 0.359375q0.25 0.25 0.390625 0.59375q0.15625 0.34375 0.15625 0.765625q0 0.4375 -0.15625 0.78125q-0.140625 0.328125 -0.40625 0.5625q-0.25 0.234375 -0.609375 0.359375q-0.34375 0.125 -0.765625 0.125l-1.859375 0zm11.295059 -2.375q-0.765625 0 -1.375 0.34375q-0.59375 0.328125 -1.03125 0.90625l0 -0.171875l-0.0625 -0.953125l-1.140625 0l0 7.046875l1.203125 0l0 -4.515625q0.125 -0.328125 0.296875 -0.59375q0.1875 -0.265625 0.421875 -0.4375q0.265625 -0.21875 0.625 -0.3125q0.359375 -0.109375 0.8125 -0.109375q0.34375 0 0.65626526 0.03125q0.3125 0.03125 0.65625 0.109375l0.171875 -1.171875q-0.1875 -0.078125 -0.546875 -0.125q-0.359375 -0.046875 -0.68751526 -0.046875zm3.0450592 3.59375l0 0.140625q0 0.75 0.21875 1.40625q0.21875 0.65625 0.640625 1.140625q0.40625 0.46875 1.0 0.75q0.59375 0.265625 1.34375 0.265625q0.75 0 1.328125 -0.265625q0.59375 -0.28125 1.015625 -0.75q0.40625 -0.484375 0.625 -1.140625q0.234375 -0.65625 0.234375 -1.40625l0 -0.140625q0 -0.765625 -0.234375 -1.421875q-0.21875 -0.65625 -0.625 -1.140625q-0.421875 -0.484375 -1.015625 -0.75q-0.59375 -0.28125 -1.34375 -0.28125q-0.734375 0 -1.328125 0.28125q-0.59375 0.265625 -1.0 0.75q-0.421875 0.484375 -0.640625 1.140625q-0.21875 0.65625 -0.21875 1.421875zm1.203125 0.140625l0 -0.140625q0 -0.515625 0.125 -0.984375q0.125 -0.484375 0.375 -0.84375q0.25 -0.359375 0.609375 -0.5625q0.375 -0.21875 0.875 -0.21875q0.5 0 0.875 0.21875q0.375 0.203125 0.640625 0.5625q0.234375 0.359375 0.359375 0.84375q0.140625 0.46875 0.140625 0.984375l0 0.140625q0 0.515625 -0.125 0.984375q-0.125 0.46875 -0.375 0.828125q-0.25 0.359375 -0.625 0.578125q-0.375 0.203125 -0.875 0.203125q-0.5 0 -0.875 -0.203125q-0.375 -0.21875 -0.625 -0.578125q-0.25 -0.359375 -0.375 -0.828125q-0.125 -0.46875 -0.125 -0.984375zm9.529449 3.4375l0.921875 0l2.875 -7.046875l-1.234375 0l-1.96875 5.3125l-0.125 0.4375l-0.109375 -0.4375l-2.015625 -5.3125l-1.234375 0l2.890625 7.046875zm5.795044 -7.046875l0 1.046875l2.390625 0l0 4.953125l-2.390625 0l0 1.046875l5.890625 0l0 -1.046875l-2.296875 0l0 -6.0l-3.59375 0zm2.234375 -1.84375q0 0.296875 0.171875 0.5q0.1875 0.1875 0.546875 0.1875q0.359375 0 0.53125 -0.1875q0.1875 -0.203125 0.1875 -0.5q0 -0.15625 -0.046875 -0.296875q-0.046875 -0.140625 -0.15625 -0.234375q-0.078125 -0.078125 -0.21875 -0.125q-0.125 -0.046875 -0.296875 -0.046875q-0.171875 0 -0.3125 0.046875q-0.125 0.046875 -0.203125 0.125q-0.109375 0.109375 -0.15625 0.25q-0.046875 0.125 -0.046875 0.28125zm10.248199 7.015625q0 0.171875 -0.0625 0.328125q-0.0625 0.140625 -0.1875 0.265625q-0.203125 0.203125 -0.5625 0.328125q-0.359375 0.109375 -0.84375 0.109375q-0.296875 0 -0.609375 -0.0625q-0.3125 -0.0625 -0.578125 -0.21875q-0.25 -0.15625 -0.421875 -0.40625q-0.171875 -0.265625 -0.203125 -0.640625l-1.203125 0q0 0.453125 0.203125 0.875q0.203125 0.40625 0.59375 0.71875q0.390625 0.328125 0.9375 0.515625q0.5625 0.1875 1.28125 0.1875q0.625 0 1.15625 -0.140625q0.53125 -0.15625 0.90625 -0.421875q0.375 -0.28125 0.578125 -0.65625q0.21875 -0.390625 0.21875 -0.859375q0 -0.4375 -0.1875 -0.765625q-0.1875 -0.328125 -0.53125 -0.59375q-0.359375 -0.234375 -0.875 -0.40625q-0.515625 -0.1875 -1.15625 -0.328125q-0.5 -0.09375 -0.828125 -0.203125q-0.3125 -0.109375 -0.5 -0.234375q-0.203125 -0.125 -0.28125 -0.28125q-0.078125 -0.171875 -0.078125 -0.375q0 -0.203125 0.09375 -0.390625q0.109375 -0.203125 0.296875 -0.34375q0.1875 -0.140625 0.46875 -0.21875q0.296875 -0.09375 0.6875 -0.09375q0.375 0 0.671875 0.109375q0.296875 0.109375 0.5 0.265625q0.203125 0.171875 0.3125 0.390625q0.125 0.21875 0.125 0.453125l1.203125 0q0 -0.46875 -0.203125 -0.859375q-0.1875 -0.40625 -0.546875 -0.703125q-0.375 -0.296875 -0.890625 -0.46875q-0.515625 -0.171875 -1.171875 -0.171875q-0.609375 0 -1.109375 0.171875q-0.5 0.15625 -0.875 0.4375q-0.359375 0.28125 -0.5625 0.65625q-0.203125 0.375 -0.203125 0.796875q0 0.4375 0.1875 0.765625q0.203125 0.328125 0.5625 0.5625q0.359375 0.25 0.84375 0.4375q0.5 0.171875 1.109375 0.296875q0.5 0.09375 0.828125 0.21875q0.328125 0.109375 0.53125 0.25q0.203125 0.15625 0.28125 0.328125q0.09375 0.171875 0.09375 0.375zm3.513794 -5.171875l0 1.046875l2.390625 0l0 4.953125l-2.390625 0l0 1.046875l5.890625 0l0 -1.046875l-2.296875 0l0 -6.0l-3.59375 0zm2.234375 -1.84375q0 0.296875 0.171875 0.5q0.1875 0.1875 0.546875 0.1875q0.359375 0 0.53125 -0.1875q0.1875 -0.203125 0.1875 -0.5q0 -0.15625 -0.046875 -0.296875q-0.046875 -0.140625 -0.15625 -0.234375q-0.078125 -0.078125 -0.21875 -0.125q-0.125 -0.046875 -0.296875 -0.046875q-0.171875 0 -0.3125 0.046875q-0.125 0.046875 -0.203125 0.125q-0.109375 0.109375 -0.15625 0.25q-0.046875 0.125 -0.046875 0.28125zm5.2325745 5.3125l0 0.140625q0 0.75 0.21875 1.40625q0.21875 0.65625 0.640625 1.140625q0.40625 0.46875 1.0 0.75q0.59375 0.265625 1.34375 0.265625q0.75 0 1.328125 -0.265625q0.59375 -0.28125 1.015625 -0.75q0.40625 -0.484375 0.625 -1.140625q0.234375 -0.65625 0.234375 -1.40625l0 -0.140625q0 -0.765625 -0.234375 -1.421875q-0.21875 -0.65625 -0.625 -1.140625q-0.421875 -0.484375 -1.015625 -0.75q-0.59375 -0.28125 -1.34375 -0.28125q-0.734375 0 -1.328125 0.28125q-0.59375 0.265625 -1.0 0.75q-0.421875 0.484375 -0.640625 1.140625q-0.21875 0.65625 -0.21875 1.421875zm1.203125 0.140625l0 -0.140625q0 -0.515625 0.125 -0.984375q0.125 -0.484375 0.375 -0.84375q0.25 -0.359375 0.609375 -0.5625q0.375 -0.21875 0.875 -0.21875q0.5 0 0.875 0.21875q0.375 0.203125 0.640625 0.5625q0.234375 0.359375 0.359375 0.84375q0.140625 0.46875 0.140625 0.984375l0 0.140625q0 0.515625 -0.125 0.984375q-0.125 0.46875 -0.375 0.828125q-0.25 0.359375 -0.625 0.578125q-0.375 0.203125 -0.875 0.203125q-0.5 0 -0.875 -0.203125q-0.375 -0.21875 -0.625 -0.578125q-0.25 -0.359375 -0.375 -0.828125q-0.125 -0.46875 -0.125 -0.984375zm7.123169 3.4375l1.21875 0l0 -5.046875q0.109375 -0.234375 0.28125 -0.421875q0.171875 -0.1875 0.359375 -0.328125q0.25 -0.171875 0.53125 -0.265625q0.28125 -0.09375 0.609375 -0.09375q0.390625 0 0.6875 0.09375q0.296875 0.09375 0.5 0.296875q0.203125 0.203125 0.3125 0.53125q0.109375 0.328125 0.109375 0.796875l0 4.4375l1.203125 0l0 -4.46875q0 -0.703125 -0.171875 -1.21875q-0.171875 -0.515625 -0.5 -0.84375q-0.3125 -0.328125 -0.765625 -0.484375q-0.453125 -0.15625 -1.015625 -0.15625q-0.40625 0 -0.78125 0.125q-0.359375 0.109375 -0.671875 0.3125q-0.203125 0.140625 -0.390625 0.328125q-0.1875 0.1875 -0.34375 0.40625l-0.078125 -1.046875l-1.09375 0l0 7.046875zm8.201324 -7.046875l0 1.046875l2.390625 0l0 4.953125l-2.390625 0l0 1.046875l5.890625 0l0 -1.046875l-2.296875 0l0 -6.0l-3.59375 0zm2.234375 -1.84375q0 0.296875 0.171875 0.5q0.1875 0.1875 0.546875 0.1875q0.359375 0 0.53125 -0.1875q0.1875 -0.203125 0.1875 -0.5q0 -0.15625 -0.046875 -0.296875q-0.046875 -0.140625 -0.15625 -0.234375q-0.078125 -0.078125 -0.21875 -0.125q-0.125 -0.046875 -0.296875 -0.046875q-0.171875 0 -0.3125 0.046875q-0.125 0.046875 -0.203125 0.125q-0.109375 0.109375 -0.15625 0.25q-0.046875 0.125 -0.046875 0.28125zm5.560669 8.890625l1.21875 0l0 -5.046875q0.109375 -0.234375 0.28125 -0.421875q0.171875 -0.1875 0.359375 -0.328125q0.25 -0.171875 0.53125 -0.265625q0.28125 -0.09375 0.609375 -0.09375q0.390625 0 0.6875 0.09375q0.296875 0.09375 0.5 0.296875q0.203125 0.203125 0.3125 0.53125q0.109375 0.328125 0.109375 0.796875l0 4.4375l1.203125 0l0 -4.46875q0 -0.703125 -0.171875 -1.21875q-0.171875 -0.515625 -0.5 -0.84375q-0.3125 -0.328125 -0.765625 -0.484375q-0.453125 -0.15625 -1.015625 -0.15625q-0.40625 0 -0.78125 0.125q-0.359375 0.109375 -0.671875 0.3125q-0.203125 0.140625 -0.390625 0.328125q-0.1875 0.1875 -0.34375 0.40625l-0.078125 -1.046875l-1.09375 0l0 7.046875zm7.7794495 -3.578125l0 0.140625q0 0.75 0.1875 1.40625q0.203125 0.65625 0.578125 1.140625q0.359375 0.46875 0.875 0.75q0.515625 0.265625 1.15625 0.265625q0.390625 0 0.71875 -0.078125q0.328125 -0.078125 0.609375 -0.234375q0.171875 -0.09375 0.328125 -0.21875q0.15625 -0.140625 0.296875 -0.296875l0 0.609375q0 0.453125 -0.140625 0.796875q-0.125 0.359375 -0.375 0.59375q-0.234375 0.25 -0.59375 0.375q-0.34375 0.125 -0.765625 0.125q-0.234375 0 -0.484375 -0.0625q-0.234375 -0.046875 -0.484375 -0.15625q-0.234375 -0.109375 -0.46875 -0.296875q-0.234375 -0.1875 -0.453125 -0.453125l-0.625 0.734375q0.234375 0.34375 0.5625 0.578125q0.34375 0.234375 0.703125 0.359375q0.359375 0.15625 0.703125 0.203125q0.359375 0.0625 0.640625 0.0625q0.65625 0 1.203125 -0.203125q0.546875 -0.1875 0.953125 -0.5625q0.390625 -0.375 0.609375 -0.921875q0.21875 -0.53125 0.21875 -1.234375l0 -6.890625l-1.09375 0l-0.0625 0.765625q-0.125 -0.15625 -0.265625 -0.28125q-0.140625 -0.125 -0.296875 -0.21875q-0.28125 -0.1875 -0.640625 -0.28125q-0.359375 -0.109375 -0.78125 -0.109375q-0.65625 0 -1.171875 0.265625q-0.515625 0.265625 -0.890625 0.75q-0.359375 0.46875 -0.5625 1.140625q-0.1875 0.65625 -0.1875 1.4375zm1.203125 0.140625l0 -0.140625q0 -0.515625 0.109375 -0.984375q0.109375 -0.46875 0.34375 -0.8125q0.234375 -0.359375 0.59375 -0.5625q0.359375 -0.21875 0.859375 -0.21875q0.3125 0 0.546875 0.078125q0.25 0.078125 0.453125 0.203125q0.203125 0.140625 0.359375 0.328125q0.15625 0.171875 0.28125 0.40625l0 3.21875q-0.125 0.234375 -0.28125 0.421875q-0.15625 0.1875 -0.34375 0.328125q-0.203125 0.125 -0.453125 0.203125q-0.25 0.078125 -0.5625 0.078125q-0.515625 0 -0.875 -0.203125q-0.34375 -0.203125 -0.578125 -0.5625q-0.234375 -0.34375 -0.34375 -0.796875q-0.109375 -0.46875 -0.109375 -0.984375z"
       fill-rule="nonzero"
       id="path15" />
    <path
       fill="#000000"
       d="m259.74054 74.03979l0.75 2.453125l1.1875 0l-3.0 -9.46875l-1.015625 0l-3.046875 9.46875l1.203125 0l0.765625 -2.453125l3.15625 0zm-2.84375 -1.046875l1.28125 -4.109375l1.25 4.109375l-2.53125 0zm6.310669 6.2031326l1.203125 0l0 -3.3750076q0.125 0.140625 0.28125 0.265625q0.15625 0.109375 0.3125 0.21875q0.28125 0.15625 0.625 0.234375q0.359375 0.078125 0.765625 0.078125q0.65625 0 1.171875 -0.265625q0.515625 -0.28125 0.875 -0.75q0.34375 -0.484375 0.53125 -1.140625q0.1875 -0.65625 0.1875 -1.40625l0 -0.140625q0 -0.78125 -0.1875 -1.4375q-0.1875 -0.671875 -0.53125 -1.140625q-0.359375 -0.484375 -0.875 -0.75q-0.515625 -0.265625 -1.203125 -0.265625q-0.375 0 -0.71875 0.078125q-0.328125 0.078125 -0.59375 0.234375q-0.203125 0.109375 -0.375 0.265625q-0.171875 0.140625 -0.3125 0.3125l-0.0625 -0.765625l-1.09375 0l0 9.750008zm4.75 -6.2812576l0 0.140625q0 0.515625 -0.125 0.984375q-0.109375 0.46875 -0.34375 0.8125q-0.234375 0.359375 -0.609375 0.578125q-0.359375 0.203125 -0.859375 0.203125q-0.3125 0 -0.5625 -0.078125q-0.25 -0.078125 -0.46875 -0.203125q-0.171875 -0.125 -0.328125 -0.28125q-0.140625 -0.171875 -0.25 -0.375l0 -3.390625q0.125 -0.21875 0.28125 -0.390625q0.171875 -0.1875 0.375 -0.3125q0.1875 -0.125 0.421875 -0.1875q0.25 -0.078125 0.53125 -0.078125q0.5 0 0.859375 0.21875q0.375 0.203125 0.609375 0.5625q0.234375 0.34375 0.34375 0.8125q0.125 0.46875 0.125 0.984375zm3.2481995 6.2812576l1.203125 0l0 -3.3750076q0.125 0.140625 0.28125 0.265625q0.15625 0.109375 0.3125 0.21875q0.28125 0.15625 0.625 0.234375q0.359375 0.078125 0.765625 0.078125q0.65625 0 1.171875 -0.265625q0.515625 -0.28125 0.875 -0.75q0.34375 -0.484375 0.53125 -1.140625q0.1875 -0.65625 0.1875 -1.40625l0 -0.140625q0 -0.78125 -0.1875 -1.4375q-0.1875 -0.671875 -0.53125 -1.140625q-0.359375 -0.484375 -0.875 -0.75q-0.515625 -0.265625 -1.203125 -0.265625q-0.375 0 -0.71875 0.078125q-0.328125 0.078125 -0.59375 0.234375q-0.203125 0.109375 -0.375 0.265625q-0.171875 0.140625 -0.3125 0.3125l-0.0625 -0.765625l-1.09375 0l0 9.750008zm4.75 -6.2812576l0 0.140625q0 0.515625 -0.125 0.984375q-0.109375 0.46875 -0.34375 0.8125q-0.234375 0.359375 -0.609375 0.578125q-0.359375 0.203125 -0.859375 0.203125q-0.3125 0 -0.5625 -0.078125q-0.25 -0.078125 -0.46875 -0.203125q-0.171875 -0.125 -0.328125 -0.28125q-0.140625 -0.171875 -0.25 -0.375l0 -3.390625q0.125 -0.21875 0.28125 -0.390625q0.171875 -0.1875 0.375 -0.3125q0.1875 -0.125 0.421875 -0.1875q0.25 -0.078125 0.53125 -0.078125q0.5 0 0.859375 0.21875q0.375 0.203125 0.609375 0.5625q0.234375 0.34375 0.34375 0.8125q0.125 0.46875 0.125 0.984375zm3.451294 -6.421875l0 1.046875l2.390625 0l0 7.90625l-2.390625 0l0 1.046875l5.890625 0l0 -1.046875l-2.296875 0l0 -8.953125l-3.59375 0zm7.9981995 2.953125l0 1.046875l2.390625 0l0 4.953125l-2.390625 0l0 1.046875l5.890625 0l0 -1.046875l-2.296875 0l0 -6.0l-3.59375 0zm2.234375 -1.84375q0 0.296875 0.171875 0.5q0.1875 0.1875 0.546875 0.1875q0.359375 0 0.53125 -0.1875q0.1875 -0.203125 0.1875 -0.5q0 -0.15625 -0.046875 -0.296875q-0.046875 -0.140625 -0.15625 -0.234375q-0.078125 -0.078125 -0.21875 -0.125q-0.125 -0.046875 -0.296875 -0.046875q-0.171875 0 -0.3125 0.046875q-0.125 0.046875 -0.203125 0.125q-0.109375 0.109375 -0.15625 0.25q-0.046875 0.125 -0.046875 0.28125zm10.201294 8.890625l1.25 0l0 -0.109375q-0.125 -0.28125 -0.1875 -0.671875q-0.0625 -0.40625 -0.0625 -0.75l0 -3.28125q0 -0.59375 -0.21875 -1.03125q-0.203125 -0.4375 -0.578125 -0.75q-0.375 -0.28125 -0.890625 -0.421875q-0.515625 -0.15625 -1.109375 -0.15625q-0.65625 0 -1.1875 0.1875q-0.515625 0.171875 -0.875 0.46875q-0.359375 0.296875 -0.546875 0.671875q-0.1875 0.375 -0.203125 0.75l1.21875 0q0 -0.21875 0.09375 -0.421875q0.109375 -0.203125 0.3125 -0.359375q0.1875 -0.140625 0.46875 -0.234375q0.296875 -0.09375 0.640625 -0.09375q0.390625 0 0.703125 0.109375q0.3125 0.09375 0.515625 0.265625q0.21875 0.171875 0.328125 0.4375q0.125 0.25 0.125 0.5625l0 0.5625l-1.3125 0q-0.734375 0 -1.328125 0.140625q-0.59375 0.140625 -1.015625 0.421875q-0.421875 0.296875 -0.65625 0.734375q-0.234375 0.4375 -0.234375 1.015625q0 0.4375 0.171875 0.828125q0.171875 0.375 0.484375 0.65625q0.3125 0.28125 0.765625 0.4375q0.453125 0.15625 1.015625 0.15625q0.34375 0 0.640625 -0.078125q0.3125 -0.0625 0.59375 -0.1875q0.265625 -0.125 0.484375 -0.28125q0.234375 -0.15625 0.40625 -0.34375q0.03125 0.21875 0.0625 0.421875q0.046875 0.203125 0.125 0.34375zm-2.140625 -0.921875q-0.34375 0 -0.609375 -0.078125q-0.265625 -0.09375 -0.4375 -0.265625q-0.1875 -0.15625 -0.28125 -0.375q-0.078125 -0.21875 -0.078125 -0.484375q0 -0.265625 0.09375 -0.484375q0.109375 -0.21875 0.296875 -0.375q0.28125 -0.21875 0.734375 -0.328125q0.46875 -0.109375 1.09375 -0.109375l1.125 0l0 1.4375q-0.109375 0.203125 -0.296875 0.390625q-0.171875 0.1875 -0.421875 0.34375q-0.25 0.15625 -0.5625 0.25q-0.296875 0.078125 -0.65625 0.078125zm5.4981995 0.921875l1.21875 0l0 -5.046875q0.109375 -0.234375 0.28125 -0.421875q0.171875 -0.1875 0.359375 -0.328125q0.25 -0.171875 0.53125 -0.265625q0.28125 -0.09375 0.609375 -0.09375q0.390625 0 0.6875 0.09375q0.296875 0.09375 0.5 0.296875q0.203125 0.203125 0.3125 0.53125q0.109375 0.328125 0.109375 0.796875l0 4.4375l1.203125 0l0 -4.46875q0 -0.703125 -0.171875 -1.21875q-0.171875 -0.515625 -0.5 -0.84375q-0.3125 -0.328125 -0.765625 -0.484375q-0.453125 -0.15625 -1.015625 -0.15625q-0.40625 0 -0.78125 0.125q-0.359375 0.109375 -0.671875 0.3125q-0.203125 0.140625 -0.390625 0.328125q-0.1875 0.1875 -0.34375 0.40625l-0.078125 -1.046875l-1.09375 0l0 7.046875zm10.998169 -0.84375q-0.5625 0 -0.9375 -0.21875q-0.375 -0.234375 -0.609375 -0.59375q-0.234375 -0.359375 -0.34375 -0.8125q-0.09375 -0.453125 -0.09375 -0.921875l0 -0.265625q0 -0.453125 0.09375 -0.90625q0.109375 -0.453125 0.34375 -0.8125q0.234375 -0.359375 0.609375 -0.578125q0.390625 -0.234375 0.9375 -0.234375q0.375 0 0.6875 0.125q0.3125 0.125 0.546875 0.34375q0.21875 0.21875 0.34375 0.5q0.140625 0.28125 0.15625 0.59375l1.140625 0q0 -0.53125 -0.21875 -1.0q-0.21875 -0.46875 -0.59375 -0.8125q-0.375 -0.34375 -0.90625 -0.53125q-0.53125 -0.203125 -1.15625 -0.203125q-0.796875 0 -1.390625 0.296875q-0.59375 0.28125 -1.0 0.75q-0.40625 0.5 -0.609375 1.140625q-0.1875 0.625 -0.1875 1.328125l0 0.265625q0 0.703125 0.1875 1.34375q0.203125 0.640625 0.609375 1.109375q0.40625 0.5 1.0 0.78125q0.59375 0.28125 1.390625 0.28125q0.5625 0 1.078125 -0.1875q0.515625 -0.1875 0.921875 -0.515625q0.390625 -0.3125 0.625 -0.734375q0.234375 -0.4375 0.25 -0.90625l-1.140625 0q-0.015625 0.296875 -0.15625 0.546875q-0.140625 0.25 -0.390625 0.421875q-0.234375 0.203125 -0.546875 0.3125q-0.3125 0.09375 -0.640625 0.09375zm8.123199 0.96875q1.015625 0 1.71875 -0.40625q0.703125 -0.421875 1.046875 -0.953125l-0.734375 -0.5625q-0.328125 0.421875 -0.828125 0.6875q-0.5 0.25 -1.140625 0.25q-0.5 0 -0.90625 -0.171875q-0.390625 -0.1875 -0.671875 -0.5q-0.28125 -0.296875 -0.453125 -0.6875q-0.15625 -0.390625 -0.203125 -0.90625l0 -0.046875l5.03125 0l0 -0.546875q0 -0.734375 -0.1875 -1.359375q-0.1875 -0.640625 -0.5625 -1.109375q-0.375 -0.453125 -0.953125 -0.71875q-0.5625 -0.265625 -1.3125 -0.265625q-0.609375 0 -1.1875 0.25q-0.578125 0.25 -1.03125 0.703125q-0.453125 0.46875 -0.734375 1.140625q-0.265625 0.671875 -0.265625 1.53125l0 0.265625q0 0.75 0.25 1.375q0.25 0.625 0.6875 1.078125q0.453125 0.453125 1.0625 0.703125q0.625 0.25 1.375 0.25zm-0.15625 -6.3125q0.453125 0 0.78125 0.171875q0.34375 0.171875 0.5625 0.4375q0.21875 0.28125 0.34375 0.65625q0.125 0.375 0.125 0.703125l0 0.046875l-3.78125 0q0.0625 -0.484375 0.234375 -0.859375q0.1875 -0.375 0.453125 -0.625q0.265625 -0.265625 0.578125 -0.390625q0.328125 -0.140625 0.703125 -0.140625z"
       fill-rule="nonzero"
       id="path16" />
    <path
       fill="#000000"
       d="m272.40878 104.64917l0 0.0625q0 0.9375 0.140625 1.765625q0.140625 0.8125 0.390625 1.5q0.25 0.703125 0.5625 1.28125q0.328125 0.578125 0.6875 1.03125q0.34375 0.453125 0.703125 0.765625q0.375 0.3125 0.6875 0.5l0.265625 -0.734375q-0.265625 -0.21875 -0.53125 -0.53125q-0.265625 -0.296875 -0.515625 -0.6875q-0.234375 -0.40625 -0.46875 -0.921875q-0.21875 -0.515625 -0.390625 -1.125q-0.15625 -0.59375 -0.25 -1.296875q-0.078125 -0.71875 -0.078125 -1.53125l0 -0.09375q0 -0.84375 0.09375 -1.578125q0.09375 -0.734375 0.265625 -1.34375q0.1875 -0.6875 0.453125 -1.25q0.28125 -0.578125 0.578125 -1.0q0.203125 -0.265625 0.40625 -0.484375q0.21875 -0.234375 0.4375 -0.390625l-0.265625 -0.78125q-0.3125 0.171875 -0.671875 0.5q-0.359375 0.3125 -0.71875 0.765625q-0.359375 0.453125 -0.6875 1.03125q-0.3125 0.578125 -0.5625 1.265625q-0.25 0.703125 -0.390625 1.53125q-0.140625 0.8125 -0.140625 1.75zm12.748169 3.84375l0 -9.46875l-1.140625 0l0 4.0625l-3.890625 0l0 -4.0625l-1.125 0l0 9.46875l1.125 0l0 -4.375l3.890625 0l0 4.375l1.140625 0zm7.0138245 -2.390625q0 0.390625 -0.171875 0.671875q-0.171875 0.28125 -0.4375 0.46875q-0.265625 0.1875 -0.609375 0.28125q-0.34375 0.078125 -0.6875 0.078125q-0.453125 0 -0.828125 -0.109375q-0.359375 -0.125 -0.65625 -0.375q-0.28125 -0.234375 -0.46875 -0.578125q-0.171875 -0.34375 -0.234375 -0.78125l-1.234375 0q0.015625 0.609375 0.265625 1.109375q0.25 0.5 0.6875 0.875q0.484375 0.421875 1.125 0.65625q0.65625 0.21875 1.34375 0.21875q0.5625 0 1.125 -0.15625q0.578125 -0.15625 1.015625 -0.46875q0.453125 -0.3125 0.734375 -0.78125q0.28125 -0.484375 0.28125 -1.125q0 -0.640625 -0.265625 -1.109375q-0.265625 -0.484375 -0.6875 -0.8125q-0.4375 -0.359375 -0.96875 -0.59375q-0.515625 -0.234375 -1.046875 -0.390625q-0.328125 -0.109375 -0.6875 -0.234375q-0.359375 -0.125 -0.65625 -0.328125q-0.3125 -0.1875 -0.515625 -0.46875q-0.203125 -0.28125 -0.21875 -0.703125q0 -0.375 0.15625 -0.65625q0.15625 -0.28125 0.421875 -0.484375q0.25 -0.1875 0.578125 -0.28125q0.328125 -0.109375 0.671875 -0.109375q0.4375 0 0.765625 0.140625q0.34375 0.125 0.59375 0.375q0.25 0.234375 0.390625 0.578125q0.15625 0.328125 0.203125 0.734375l1.25 0q-0.015625 -0.65625 -0.28125 -1.171875q-0.265625 -0.53125 -0.71875 -0.90625q-0.4375 -0.375 -1.015625 -0.578125q-0.5625 -0.203125 -1.1875 -0.203125q-0.5625 0 -1.125 0.171875q-0.546875 0.171875 -0.96875 0.515625q-0.4375 0.328125 -0.71875 0.8125q-0.265625 0.46875 -0.265625 1.09375q0 0.609375 0.265625 1.0625q0.28125 0.453125 0.703125 0.78125q0.421875 0.328125 0.9375 0.5625q0.515625 0.21875 1.015625 0.390625q0.359375 0.109375 0.71875 0.25q0.375 0.125 0.6875 0.328125q0.3125 0.21875 0.515625 0.515625q0.203125 0.296875 0.203125 0.734375zm4.357544 -7.078125l-1.484375 0l0 9.46875l1.171875 0l0 -3.78125l-0.109375 -3.8125l1.609375 4.953125l0.6875 0l1.75 -5.09375l-0.09375 3.953125l0 3.78125l1.171875 0l0 -9.46875l-1.5 0l-1.65625 4.734375l-1.546875 -4.734375zm11.076324 5.6875l0 -0.0625q0 -1.0 -0.15625 -1.796875q-0.15625 -0.796875 -0.390625 -1.484375q-0.234375 -0.703125 -0.5625 -1.265625q-0.3125 -0.578125 -0.6875 -1.03125q-0.34375 -0.453125 -0.71875 -0.765625q-0.359375 -0.328125 -0.671875 -0.5l-0.265625 0.734375q0.21875 0.171875 0.4375 0.421875q0.234375 0.25 0.453125 0.578125q0.28125 0.421875 0.546875 1.0q0.265625 0.5625 0.453125 1.28125q0.125 0.5 0.234375 1.21875q0.109375 0.71875 0.109375 1.59375l0 0.09375q0 0.765625 -0.078125 1.453125q-0.078125 0.671875 -0.234375 1.265625q-0.140625 0.625 -0.375 1.15625q-0.21875 0.53125 -0.453125 0.953125q-0.25 0.421875 -0.53125 0.734375q-0.28125 0.328125 -0.5625 0.53125l0.265625 0.734375q0.3125 -0.1875 0.671875 -0.5q0.375 -0.3125 0.71875 -0.765625q0.359375 -0.453125 0.671875 -1.03125q0.328125 -0.578125 0.578125 -1.28125q0.25 -0.6875 0.390625 -1.5q0.15625 -0.828125 0.15625 -1.765625z"
       fill-rule="nonzero"
       id="path17" />
    <path
       fill="#cfe2f3"
       d="m548.77954 41.992126l7.0551147 -8.110237l7.0551147 8.110237l-7.0551147 8.110237z"
       fill-rule="evenodd"
       id="path18" />
    <path
       stroke="#000000"
       stroke-width="1.0"
       stroke-linejoin="round"
       stroke-linecap="butt"
       d="m548.77954 41.992126l7.0551147 -8.110237l7.0551147 8.110237l-7.0551147 8.110237z"
       fill-rule="evenodd"
       id="path19" />
    <path
       fill="#cfe2f3"
       d="m630.77954 41.992126l7.0551147 -8.110237l7.0551147 8.110237l-7.0551147 8.110237z"
       fill-rule="evenodd"
       id="path20" />
    <path
       stroke="#000000"
       stroke-width="1.0"
       stroke-linejoin="round"
       stroke-linecap="butt"
       d="m630.77954 41.992126l7.0551147 -8.110237l7.0551147 8.110237l-7.0551147 8.110237z"
       fill-rule="evenodd"
       id="path21" />
    <path
       fill="#000000"
       fill-opacity="0.0"
       d="m562.8898 41.992126l67.90552 0"
       fill-rule="evenodd"
       id="path22" />
    <path
       stroke="#000000"
       stroke-width="1.0"
       stroke-linejoin="round"
       stroke-linecap="butt"
       d="m562.8898 41.992126l61.905518 0"
       fill-rule="evenodd"
       id="path23" />
    <path
       fill="#000000"
       stroke="#000000"
       stroke-width="1.0"
       stroke-linecap="butt"
       d="m624.7953 43.64386l4.538086 -1.6517334l-4.538086 -1.6517334z"
       fill-rule="evenodd"
       id="path24" />
    <path
       fill="#000000"
       fill-opacity="0.0"
       d="m555.75854 8.385827l82.42517 0l0 33.6063l-82.42517 0z"
       fill-rule="evenodd"
       id="path25" />
    <path
       fill="#000000"
       d="m581.2413 26.32645l1.859375 3.859375l1.28125 0l0 -0.078125l-2.015625 -4.046875q0.390625 -0.171875 0.71875 -0.40625q0.328125 -0.25 0.5625 -0.5625q0.234375 -0.3125 0.359375 -0.6875q0.140625 -0.390625 0.140625 -0.84375q0 -0.71875 -0.25 -1.25q-0.25 -0.53125 -0.6875 -0.890625q-0.4375 -0.34375 -1.03125 -0.515625q-0.578125 -0.1875 -1.25 -0.1875l-2.78125 0l0 9.46875l1.203125 0l0 -3.859375l1.890625 0zm-1.890625 -1.0l0 -3.625l1.578125 0q0.4375 0 0.796875 0.125q0.375 0.109375 0.640625 0.34375q0.265625 0.234375 0.421875 0.578125q0.15625 0.34375 0.15625 0.796875q0 0.421875 -0.15625 0.75q-0.15625 0.328125 -0.4375 0.5625q-0.265625 0.21875 -0.625 0.34375q-0.359375 0.125 -0.765625 0.125l-1.609375 0zm11.716919 2.46875q0 0.390625 -0.171875 0.671875q-0.171875 0.28125 -0.4375 0.46875q-0.265625 0.1875 -0.609375 0.28125q-0.34375 0.078125 -0.6875 0.078125q-0.453125 0 -0.828125 -0.109375q-0.359375 -0.125 -0.65625 -0.375q-0.28125 -0.234375 -0.46875 -0.578125q-0.171875 -0.34375 -0.234375 -0.78125l-1.234375 0q0.015625 0.609375 0.265625 1.109375q0.25 0.5 0.6875 0.875q0.484375 0.421875 1.125 0.65625q0.65625 0.21875 1.34375 0.21875q0.5625 0 1.125 -0.15625q0.578125 -0.15625 1.015625 -0.46875q0.453125 -0.3125 0.734375 -0.78125q0.28125 -0.484375 0.28125 -1.125q0 -0.640625 -0.265625 -1.109375q-0.265625 -0.484375 -0.6875 -0.8125q-0.4375 -0.359375 -0.96875 -0.59375q-0.515625 -0.234375 -1.046875 -0.390625q-0.328125 -0.109375 -0.6875 -0.234375q-0.359375 -0.125 -0.65625 -0.328125q-0.3125 -0.1875 -0.515625 -0.46875q-0.203125 -0.28125 -0.21875 -0.703125q0 -0.375 0.15625 -0.65625q0.15625 -0.28125 0.421875 -0.484375q0.25 -0.1875 0.578125 -0.28125q0.328125 -0.109375 0.671875 -0.109375q0.4375 0 0.765625 0.140625q0.34375 0.125 0.59375 0.375q0.25 0.234375 0.390625 0.578125q0.15625 0.328125 0.203125 0.734375l1.25 0q-0.015625 -0.65625 -0.28125 -1.171875q-0.265625 -0.53125 -0.71875 -0.90625q-0.4375 -0.375 -1.015625 -0.578125q-0.5625 -0.203125 -1.1875 -0.203125q-0.5625 0 -1.125 0.171875q-0.546875 0.171875 -0.96875 0.515625q-0.4375 0.328125 -0.71875 0.8125q-0.265625 0.46875 -0.265625 1.09375q0 0.609375 0.265625 1.0625q0.28125 0.453125 0.703125 0.78125q0.421875 0.328125 0.9375 0.5625q0.515625 0.21875 1.015625 0.390625q0.359375 0.109375 0.71875 0.25q0.375 0.125 0.6875 0.328125q0.3125 0.21875 0.515625 0.515625q0.203125 0.296875 0.203125 0.734375zm9.420105 -6.0625l0 -1.015625l-7.015625 0l0 1.015625l2.921875 0l0 8.453125l1.171875 0l0 -8.453125l2.921875 0zm7.451294 9.4375l0 -0.984375l-5.953125 0l0 0.984375l5.953125 0zm8.091919 -0.984375l0 -9.46875l-1.21875 0l-0.015625 7.0625l-3.671875 -7.0625l-1.21875 0l0 9.46875l1.203125 0l0.03125 -7.078125l3.671875 7.078125l1.21875 0z"
       fill-rule="nonzero"
       id="path26" />
    <path
       fill="#cfe2f3"
       d="m548.77954 73.99213l7.0551147 -8.110237l7.0551147 8.110237l-7.0551147 8.110237z"
       fill-rule="evenodd"
       id="path27" />
    <path
       stroke="#000000"
       stroke-width="1.0"
       stroke-linejoin="round"
       stroke-linecap="butt"
       d="m548.77954 73.99213l7.0551147 -8.110237l7.0551147 8.110237l-7.0551147 8.110237z"
       fill-rule="evenodd"
       id="path28" />
    <path
       fill="#cfe2f3"
       d="m630.77954 73.99213l7.0551147 -8.110237l7.0551147 8.110237l-7.0551147 8.110237z"
       fill-rule="evenodd"
       id="path29" />
    <path
       stroke="#000000"
       stroke-width="1.0"
       stroke-linejoin="round"
       stroke-linecap="butt"
       d="m630.77954 73.99213l7.0551147 -8.110237l7.0551147 8.110237l-7.0551147 8.110237z"
       fill-rule="evenodd"
       id="path30" />
    <path
       fill="#000000"
       fill-opacity="0.0"
       d="m555.75854 40.385826l82.42517 0l0 33.6063l-82.42517 0z"
       fill-rule="evenodd"
       id="path31" />
    <path
       fill="#000000"
       d="m579.0703 59.7952q0 0.390625 -0.171875 0.671875q-0.171875 0.28125 -0.4375 0.46875q-0.265625 0.1875 -0.609375 0.28125q-0.34375 0.078125 -0.6875 0.078125q-0.453125 0 -0.828125 -0.109375q-0.359375 -0.125 -0.65625 -0.375q-0.28125 -0.234375 -0.46875 -0.578125q-0.171875 -0.34375 -0.234375 -0.78125l-1.234375 0q0.015625 0.609375 0.265625 1.109375q0.25 0.5 0.6875 0.875q0.484375 0.421875 1.125 0.65625q0.65625 0.21875 1.34375 0.21875q0.5625 0 1.125 -0.15625q0.578125 -0.15625 1.015625 -0.46875q0.453125 -0.3125 0.734375 -0.78125q0.28125 -0.484375 0.28125 -1.125q0 -0.640625 -0.265625 -1.109375q-0.265625 -0.484375 -0.6875 -0.8125q-0.4375 -0.359375 -0.96875 -0.59375q-0.515625 -0.234375 -1.046875 -0.390625q-0.328125 -0.109375 -0.6875 -0.234375q-0.359375 -0.125 -0.65625 -0.328125q-0.3125 -0.1875 -0.515625 -0.46875q-0.203125 -0.28125 -0.21875 -0.703125q0 -0.375 0.15625 -0.65625q0.15625 -0.28125 0.421875 -0.484375q0.25 -0.1875 0.578125 -0.28125q0.328125 -0.109375 0.671875 -0.109375q0.4375 0 0.765625 0.140625q0.34375 0.125 0.59375 0.375q0.25 0.234375 0.390625 0.578125q0.15625 0.328125 0.203125 0.734375l1.25 0q-0.015625 -0.65625 -0.28125 -1.171875q-0.265625 -0.53125 -0.71875 -0.90625q-0.4375 -0.375 -1.015625 -0.578125q-0.5625 -0.203125 -1.1875 -0.203125q-0.5625 0 -1.125 0.171875q-0.546875 0.171875 -0.96875 0.515625q-0.4375 0.328125 -0.71875 0.8125q-0.265625 0.46875 -0.265625 1.09375q0 0.609375 0.265625 1.0625q0.28125 0.453125 0.703125 0.78125q0.421875 0.328125 0.9375 0.5625q0.515625 0.21875 1.015625 0.390625q0.359375 0.109375 0.71875 0.25q0.375 0.125 0.6875 0.328125q0.3125 0.21875 0.515625 0.515625q0.203125 0.296875 0.203125 0.734375zm9.420044 -6.0625l0 -1.015625l-7.015625 0l0 1.015625l2.921875 0l0 8.453125l1.171875 0l0 -8.453125l2.921875 0zm4.74823 4.59375l1.859375 3.859375l1.28125 0l0 -0.078125l-2.015625 -4.046875q0.390625 -0.171875 0.71875 -0.40625q0.328125 -0.25 0.5625 -0.5625q0.234375 -0.3125 0.359375 -0.6875q0.140625 -0.390625 0.140625 -0.84375q0 -0.71875 -0.25 -1.25q-0.25 -0.53125 -0.6875 -0.890625q-0.4375 -0.34375 -1.03125 -0.515625q-0.578125 -0.1875 -1.25 -0.1875l-2.78125 0l0 9.46875l1.203125 0l0 -3.859375l1.890625 0zm-1.890625 -1.0l0 -3.625l1.578125 0q0.4375 0 0.796875 0.125q0.375 0.109375 0.640625 0.34375q0.265625 0.234375 0.421875 0.578125q0.15625 0.34375 0.15625 0.796875q0 0.421875 -0.15625 0.75q-0.15625 0.328125 -0.4375 0.5625q-0.265625 0.21875 -0.625 0.34375q-0.359375 0.125 -0.765625 0.125l-1.609375 0zm11.279419 2.40625l0.75 2.453125l1.1875 0l-3.0 -9.46875l-1.015625 0l-3.046875 9.46875l1.203125 0l0.765625 -2.453125l3.15625 0zm-2.84375 -1.046875l1.28125 -4.109375l1.25 4.109375l-2.53125 0zm7.638794 -0.296875l1.859375 0q0.640625 -0.015625 1.203125 -0.203125q0.578125 -0.1875 1.0 -0.546875q0.4375 -0.359375 0.6875 -0.875q0.25 -0.53125 0.25 -1.203125q0 -0.6875 -0.25 -1.21875q-0.25 -0.53125 -0.6875 -0.890625q-0.421875 -0.34375 -1.0 -0.53125q-0.5625 -0.203125 -1.203125 -0.203125l-3.0625 0l0 9.46875l1.203125 0l0 -3.796875zm0 -1.0l0 -3.6875l1.859375 0q0.421875 0 0.765625 0.140625q0.359375 0.125 0.625 0.359375q0.25 0.25 0.390625 0.59375q0.15625 0.34375 0.15625 0.765625q0 0.4375 -0.15625 0.78125q-0.140625 0.328125 -0.40625 0.5625q-0.25 0.234375 -0.609375 0.359375q-0.34375 0.125 -0.765625 0.125l-1.859375 0zm11.638794 2.40625q0 0.390625 -0.171875 0.671875q-0.171875 0.28125 -0.4375 0.46875q-0.265625 0.1875 -0.609375 0.28125q-0.34375 0.078125 -0.6875 0.078125q-0.453125 0 -0.828125 -0.109375q-0.359375 -0.125 -0.65625 -0.375q-0.28125 -0.234375 -0.46875 -0.578125q-0.171875 -0.34375 -0.234375 -0.78125l-1.234375 0q0.015625 0.609375 0.265625 1.109375q0.25 0.5 0.6875 0.875q0.484375 0.421875 1.125 0.65625q0.65625 0.21875 1.34375 0.21875q0.5625 0 1.125 -0.15625q0.578125 -0.15625 1.015625 -0.46875q0.453125 -0.3125 0.734375 -0.78125q0.28125 -0.484375 0.28125 -1.125q0 -0.640625 -0.265625 -1.109375q-0.265625 -0.484375 -0.6875 -0.8125q-0.4375 -0.359375 -0.96875 -0.59375q-0.515625 -0.234375 -1.046875 -0.390625q-0.328125 -0.109375 -0.6875 -0.234375q-0.359375 -0.125 -0.65625 -0.328125q-0.3125 -0.1875 -0.515625 -0.46875q-0.203125 -0.28125 -0.21875 -0.703125q0 -0.375 0.15625 -0.65625q0.15625 -0.28125 0.421875 -0.484375q0.25 -0.1875 0.578125 -0.28125q0.328125 -0.109375 0.671875 -0.109375q0.4375 0 0.765625 0.140625q0.34375 0.125 0.59375 0.375q0.25 0.234375 0.390625 0.578125q0.15625 0.328125 0.203125 0.734375l1.25 0q-0.015625 -0.65625 -0.28125 -1.171875q-0.265625 -0.53125 -0.71875 -0.90625q-0.4375 -0.375 -1.015625 -0.578125q-0.5625 -0.203125 -1.1875 -0.203125q-0.5625 0 -1.125 0.171875q-0.546875 0.171875 -0.96875 0.515625q-0.4375 0.328125 -0.71875 0.8125q-0.265625 0.46875 -0.265625 1.09375q0 0.609375 0.265625 1.0625q0.28125 0.453125 0.703125 0.78125q0.421875 0.328125 0.9375 0.5625q0.515625 0.21875 1.015625 0.390625q0.359375 0.109375 0.71875 0.25q0.375 0.125 0.6875 0.328125q0.3125 0.21875 0.515625 0.515625q0.203125 0.296875 0.203125 0.734375z"
       fill-rule="nonzero"
       id="path32" />
    <path
       fill="#cfe2f3"
       d="m548.77954 113.99213l7.0551147 -8.110237l7.0551147 8.110237l-7.0551147 8.110237z"
       fill-rule="evenodd"
       id="path33" />
    <path
       stroke="#000000"
       stroke-width="1.0"
       stroke-linejoin="round"
       stroke-linecap="butt"
       d="m548.77954 113.99213l7.0551147 -8.110237l7.0551147 8.110237l-7.0551147 8.110237z"
       fill-rule="evenodd"
       id="path34" />
    <path
       fill="#cfe2f3"
       d="m630.77954 113.99213l7.0551147 -8.110237l7.0551147 8.110237l-7.0551147 8.110237z"
       fill-rule="evenodd"
       id="path35" />
    <path
       stroke="#000000"
       stroke-width="1.0"
       stroke-linejoin="round"
       stroke-linecap="butt"
       d="m630.77954 113.99213l7.0551147 -8.110237l7.0551147 8.110237l-7.0551147 8.110237z"
       fill-rule="evenodd"
       id="path36" />
    <path
       fill="#000000"
       fill-opacity="0.0"
       d="m555.75854 80.385826l82.42517 0l0 33.6063l-82.42517 0z"
       fill-rule="evenodd"
       id="path37" />
    <path
       fill="#000000"
       d="m591.06757 99.795204q0 0.390625 -0.171875 0.671875q-0.171875 0.28125 -0.4375 0.46875q-0.265625 0.1875 -0.609375 0.28125q-0.34375 0.078125 -0.6875 0.078125q-0.453125 0 -0.828125 -0.109375q-0.359375 -0.125 -0.65625 -0.375q-0.28125 -0.234375 -0.46875 -0.578125q-0.171875 -0.34375 -0.234375 -0.78125l-1.234375 0q0.015625 0.609375 0.265625 1.109375q0.25 0.5 0.6875 0.875q0.484375 0.421875 1.125 0.65625q0.65625 0.21875 1.34375 0.21875q0.5625 0 1.125 -0.15625q0.578125 -0.15625 1.015625 -0.46875q0.453125 -0.3125 0.734375 -0.78125q0.28125 -0.484375 0.28125 -1.125q0 -0.640625 -0.265625 -1.109375q-0.265625 -0.484375 -0.6875 -0.8125q-0.4375 -0.359375 -0.96875 -0.59375q-0.515625 -0.234375 -1.046875 -0.390625q-0.328125 -0.109375 -0.6875 -0.234375q-0.359375 -0.125 -0.65625 -0.328125q-0.3125 -0.1875 -0.515625 -0.46875q-0.203125 -0.28125 -0.21875 -0.703125q0 -0.375 0.15625 -0.65625q0.15625 -0.28125 0.421875 -0.484375q0.25 -0.1875 0.578125 -0.28125q0.328125 -0.109375 0.671875 -0.109375q0.4375 0 0.765625 0.140625q0.34375 0.125 0.59375 0.375q0.25 0.234375 0.390625 0.578125q0.15625 0.328125 0.203125 0.734375l1.25 0q-0.015625 -0.65625 -0.28125 -1.171875q-0.265625 -0.53125 -0.71875 -0.90625q-0.4375 -0.375 -1.015625 -0.578125q-0.5625 -0.203125 -1.1875 -0.203125q-0.5625 0 -1.125 0.171875q-0.546875 0.171875 -0.96875 0.515625q-0.4375 0.328125 -0.71875 0.8125q-0.265625 0.46875 -0.265625 1.09375q0 0.609375 0.265625 1.0625q0.28125 0.453125 0.703125 0.78125q0.421875 0.328125 0.9375 0.5625q0.515625 0.21875 1.015625 0.390625q0.359375 0.109375 0.71875 0.25q0.375 0.125 0.6875 0.328125q0.3125 0.21875 0.515625 0.515625q0.203125 0.296875 0.203125 0.734375zm4.357605 -1.40625l1.859375 0q0.640625 -0.015625 1.203125 -0.203125q0.578125 -0.1875 1.0 -0.546875q0.4375 -0.359375 0.6875 -0.875q0.25 -0.53125 0.25 -1.203125q0 -0.6875 -0.25 -1.21875q-0.25 -0.53125 -0.6875 -0.890625q-0.421875 -0.34375 -1.0 -0.53125q-0.5625 -0.203125 -1.203125 -0.203125l-3.0625 0l0 9.46875l1.203125 0l0 -3.796875zm0 -1.0l0 -3.6875l1.859375 0q0.421875 0 0.765625 0.140625q0.359375 0.125 0.625 0.359375q0.25 0.25 0.390625 0.59375q0.15625 0.34375 0.15625 0.765625q0 0.4375 -0.15625 0.78125q-0.140625 0.328125 -0.40625 0.5625q-0.25 0.234375 -0.609375 0.359375q-0.34375 0.125 -0.765625 0.125l-1.859375 0zm6.670044 -4.671875l0 1.046875l2.21875 0l0 7.375l-2.21875 0l0 1.046875l5.734375 0l0 -1.046875l-2.265625 0l0 -7.375l2.265625 0l0 -1.046875l-5.734375 0z"
       fill-rule="nonzero"
       id="path38" />
    <path
       fill="#000000"
       fill-opacity="0.0"
       d="m562.8898 73.99213l68.09448 -0.22047424"
       fill-rule="evenodd"
       id="path39" />
    <path
       stroke="#000000"
       stroke-width="1.0"
       stroke-linejoin="round"
       stroke-linecap="butt"
       d="m562.8898 73.99213l62.094543 -0.20104218"
       fill-rule="evenodd"
       id="path40" />
    <path
       fill="#000000"
       stroke="#000000"
       stroke-width="1.0"
       stroke-linecap="butt"
       d="m624.9896 75.4428l4.532715 -1.6664124l-4.543396 -1.6370316z"
       fill-rule="evenodd"
       id="path41" />
    <path
       fill="#000000"
       fill-opacity="0.0"
       d="m561.50134 113.78215l70.01575 0.50393677"
       fill-rule="evenodd"
       id="path42" />
    <path
       stroke="#000000"
       stroke-width="1.0"
       stroke-linejoin="round"
       stroke-linecap="butt"
       d="m567.50116 113.82533l58.016052 0.41757202"
       fill-rule="evenodd"
       id="path43" />
    <path
       fill="#000000"
       stroke="#000000"
       stroke-width="1.0"
       stroke-linecap="butt"
       d="m567.51306 112.173645l-4.5498657 1.6190262l4.526062 1.6843567z"
       fill-rule="evenodd"
       id="path44" />
    <path
       fill="#000000"
       stroke="#000000"
       stroke-width="1.0"
       stroke-linecap="butt"
       d="m625.5053 115.89459l4.5498657 -1.6190262l-4.526062 -1.6843491z"
       fill-rule="evenodd"
       id="path45" />
    <path
       fill="#f4cccc"
       d="m8.393701 10.244095l127.49607 0l0 127.49606l-127.49607 0z"
       fill-rule="evenodd"
       id="path46" />
    <path
       stroke="#000000"
       stroke-width="1.0"
       stroke-linejoin="round"
       stroke-linecap="butt"
       d="m8.393701 10.244095l127.49607 0l0 127.49606l-127.49607 0z"
       fill-rule="evenodd"
       id="path47" />
    <path
       fill="#000000"
       d="m26.605753 45.11525l1.859375 0q0.640625 -0.015625 1.203125 -0.203125q0.578125 -0.1875 1.0 -0.546875q0.4375 -0.359375 0.6875 -0.875q0.25 -0.53125 0.25 -1.203125q0 -0.6875 -0.25 -1.21875q-0.25 -0.53125 -0.6875 -0.890625q-0.421875 -0.34375 -1.0 -0.53125q-0.5625 -0.203125 -1.203125 -0.203125l-3.0625 0l0 9.46875l1.203125 0l0 -3.796875zm0 -1.0l0 -3.6875l1.859375 0q0.421875 0 0.765625 0.140625q0.359375 0.125 0.625 0.359375q0.25 0.25 0.390625 0.59375q0.15625 0.34375 0.15625 0.765625q0 0.4375 -0.15625 0.78125q-0.140625 0.328125 -0.40625 0.5625q-0.25 0.234375 -0.609375 0.359375q-0.34375 0.125 -0.765625 0.125l-1.859375 0zm11.295057 -2.375q-0.765625 0 -1.375 0.34375q-0.59375 0.328125 -1.03125 0.90625l0 -0.171875l-0.0625 -0.953125l-1.140625 0l0 7.046875l1.203125 0l0 -4.515625q0.125 -0.328125 0.296875 -0.59375q0.1875 -0.265625 0.421875 -0.4375q0.265625 -0.21875 0.625 -0.3125q0.359375 -0.109375 0.8125 -0.109375q0.34375 0 0.65625 0.03125q0.3125 0.03125 0.65625 0.109375l0.171875 -1.171875q-0.1875 -0.078125 -0.546875 -0.125q-0.359375 -0.046875 -0.6875 -0.046875zm3.0450592 3.59375l0 0.140625q0 0.75 0.21875 1.40625q0.21875 0.65625 0.640625 1.140625q0.40625 0.46875 1.0 0.75q0.59375 0.265625 1.34375 0.265625q0.75 0 1.328125 -0.265625q0.59375 -0.28125 1.015625 -0.75q0.40625 -0.484375 0.625 -1.140625q0.234375 -0.65625 0.234375 -1.40625l0 -0.140625q0 -0.765625 -0.234375 -1.421875q-0.21875 -0.65625 -0.625 -1.140625q-0.421875 -0.484375 -1.015625 -0.75q-0.59375 -0.28125 -1.34375 -0.28125q-0.734375 0 -1.328125 0.28125q-0.59375 0.265625 -1.0 0.75q-0.421875 0.484375 -0.640625 1.140625q-0.21875 0.65625 -0.21875 1.421875zm1.203125 0.140625l0 -0.140625q0 -0.515625 0.125 -0.984375q0.125 -0.484375 0.375 -0.84375q0.25 -0.359375 0.609375 -0.5625q0.375 -0.21875 0.875 -0.21875q0.5 0 0.875 0.21875q0.375 0.203125 0.640625 0.5625q0.234375 0.359375 0.359375 0.84375q0.140625 0.46875 0.140625 0.984375l0 0.140625q0 0.515625 -0.125 0.984375q-0.125 0.46875 -0.375 0.828125q-0.25 0.359375 -0.625 0.578125q-0.375 0.203125 -0.875 0.203125q-0.5 0 -0.875 -0.203125q-0.375 -0.21875 -0.625 -0.578125q-0.25 -0.359375 -0.375 -0.828125q-0.125 -0.46875 -0.125 -0.984375zm9.529434 3.4375l0.921875 0l2.875 -7.046875l-1.234375 0l-1.96875 5.3125l-0.125 0.4375l-0.109375 -0.4375l-2.015625 -5.3125l-1.234375 0l2.890625 7.046875zm5.795059 -7.046875l0 1.046875l2.390625 0l0 4.953125l-2.390625 0l0 1.046875l5.890625 0l0 -1.046875l-2.296875 0l0 -6.0l-3.59375 0zm2.234375 -1.84375q0 0.296875 0.171875 0.5q0.1875 0.1875 0.546875 0.1875q0.359375 0 0.53125 -0.1875q0.1875 -0.203125 0.1875 -0.5q0 -0.15625 -0.046875 -0.296875q-0.046875 -0.140625 -0.15625 -0.234375q-0.078125 -0.078125 -0.21875 -0.125q-0.125 -0.046875 -0.296875 -0.046875q-0.171875 0 -0.3125 0.046875q-0.125 0.046875 -0.203125 0.125q-0.109375 0.109375 -0.15625 0.25q-0.046875 0.125 -0.046875 0.28125zm10.248184 7.015625q0 0.171875 -0.0625 0.328125q-0.0625 0.140625 -0.1875 0.265625q-0.203125 0.203125 -0.5625 0.328125q-0.359375 0.109375 -0.84375 0.109375q-0.296875 0 -0.609375 -0.0625q-0.3125 -0.0625 -0.578125 -0.21875q-0.25 -0.15625 -0.421875 -0.40625q-0.171875 -0.265625 -0.203125 -0.640625l-1.203125 0q0 0.453125 0.203125 0.875q0.203125 0.40625 0.59375 0.71875q0.390625 0.328125 0.9375 0.515625q0.5625 0.1875 1.28125 0.1875q0.625 0 1.15625 -0.140625q0.53125 -0.15625 0.90625 -0.421875q0.375 -0.28125 0.578125 -0.65625q0.21875 -0.390625 0.21875 -0.859375q0 -0.4375 -0.1875 -0.765625q-0.1875 -0.328125 -0.53125 -0.59375q-0.359375 -0.234375 -0.875 -0.40625q-0.515625 -0.1875 -1.15625 -0.328125q-0.5 -0.09375 -0.828125 -0.203125q-0.3125 -0.109375 -0.5 -0.234375q-0.203125 -0.125 -0.28125 -0.28125q-0.078125 -0.171875 -0.078125 -0.375q0 -0.203125 0.09375 -0.390625q0.109375 -0.203125 0.296875 -0.34375q0.1875 -0.140625 0.46875 -0.21875q0.296875 -0.09375 0.6875 -0.09375q0.375 0 0.671875 0.109375q0.296875 0.109375 0.5 0.265625q0.203125 0.171875 0.3125 0.390625q0.125 0.21875 0.125 0.453125l1.203125 0q0 -0.46875 -0.203125 -0.859375q-0.1875 -0.40625 -0.546875 -0.703125q-0.375 -0.296875 -0.890625 -0.46875q-0.515625 -0.171875 -1.171875 -0.171875q-0.609375 0 -1.109375 0.171875q-0.5 0.15625 -0.875 0.4375q-0.359375 0.28125 -0.5625 0.65625q-0.203125 0.375 -0.203125 0.796875q0 0.4375 0.1875 0.765625q0.203125 0.328125 0.5625 0.5625q0.359375 0.25 0.84375 0.4375q0.5 0.171875 1.109375 0.296875q0.5 0.09375 0.828125 0.21875q0.328125 0.109375 0.53125 0.25q0.203125 0.15625 0.28125 0.328125q0.09375 0.171875 0.09375 0.375zm3.5138092 -5.171875l0 1.046875l2.390625 0l0 4.953125l-2.390625 0l0 1.046875l5.890625 0l0 -1.046875l-2.296875 0l0 -6.0l-3.59375 0zm2.234375 -1.84375q0 0.296875 0.171875 0.5q0.1875 0.1875 0.546875 0.1875q0.359375 0 0.53125 -0.1875q0.1875 -0.203125 0.1875 -0.5q0 -0.15625 -0.046875 -0.296875q-0.046875 -0.140625 -0.15625 -0.234375q-0.078125 -0.078125 -0.21875 -0.125q-0.125 -0.046875 -0.296875 -0.046875q-0.171875 0 -0.3125 0.046875q-0.125 0.046875 -0.203125 0.125q-0.109375 0.109375 -0.15625 0.25q-0.046875 0.125 -0.046875 0.28125zm5.232559 5.3125l0 0.140625q0 0.75 0.21875 1.40625q0.21875 0.65625 0.640625 1.140625q0.40625 0.46875 1.0 0.75q0.59375 0.265625 1.34375 0.265625q0.75 0 1.328125 -0.265625q0.59375 -0.28125 1.015625 -0.75q0.40625 -0.484375 0.625 -1.140625q0.234375 -0.65625 0.234375 -1.40625l0 -0.140625q0 -0.765625 -0.234375 -1.421875q-0.21875 -0.65625 -0.625 -1.140625q-0.421875 -0.484375 -1.015625 -0.75q-0.59375 -0.28125 -1.34375 -0.28125q-0.734375 0 -1.328125 0.28125q-0.59375 0.265625 -1.0 0.75q-0.421875 0.484375 -0.640625 1.140625q-0.21875 0.65625 -0.21875 1.421875zm1.203125 0.140625l0 -0.140625q0 -0.515625 0.125 -0.984375q0.125 -0.484375 0.375 -0.84375q0.25 -0.359375 0.609375 -0.5625q0.375 -0.21875 0.875 -0.21875q0.5 0 0.875 0.21875q0.375 0.203125 0.640625 0.5625q0.234375 0.359375 0.359375 0.84375q0.140625 0.46875 0.140625 0.984375l0 0.140625q0 0.515625 -0.125 0.984375q-0.125 0.46875 -0.375 0.828125q-0.25 0.359375 -0.625 0.578125q-0.375 0.203125 -0.875 0.203125q-0.5 0 -0.875 -0.203125q-0.375 -0.21875 -0.625 -0.578125q-0.25 -0.359375 -0.375 -0.828125q-0.125 -0.46875 -0.125 -0.984375zm7.123184 3.4375l1.21875 0l0 -5.046875q0.109375 -0.234375 0.28125 -0.421875q0.171875 -0.1875 0.359375 -0.328125q0.25 -0.171875 0.53125 -0.265625q0.28125 -0.09375 0.609375 -0.09375q0.390625 0 0.6875 0.09375q0.296875 0.09375 0.5 0.296875q0.203125 0.203125 0.3125 0.53125q0.109375 0.328125 0.109375 0.796875l0 4.4375l1.203125 0l0 -4.46875q0 -0.703125 -0.171875 -1.21875q-0.171875 -0.515625 -0.5 -0.84375q-0.3125 -0.328125 -0.765625 -0.484375q-0.453125 -0.15625 -1.015625 -0.15625q-0.40625 0 -0.78125 0.125q-0.359375 0.109375 -0.671875 0.3125q-0.203125 0.140625 -0.390625 0.328125q-0.1875 0.1875 -0.34375 0.40625l-0.078125 -1.046875l-1.09375 0l0 7.046875zm8.201309 -7.046875l0 1.046875l2.390625 0l0 4.953125l-2.390625 0l0 1.046875l5.890625 0l0 -1.046875l-2.296875 0l0 -6.0l-3.59375 0zm2.234375 -1.84375q0 0.296875 0.171875 0.5q0.1875 0.1875 0.546875 0.1875q0.359375 0 0.53125 -0.1875q0.1875 -0.203125 0.1875 -0.5q0 -0.15625 -0.046875 -0.296875q-0.046875 -0.140625 -0.15625 -0.234375q-0.078125 -0.078125 -0.21875 -0.125q-0.125 -0.046875 -0.296875 -0.046875q-0.171875 0 -0.3125 0.046875q-0.125 0.046875 -0.203125 0.125q-0.109375 0.109375 -0.15625 0.25q-0.046875 0.125 -0.046875 0.28125zm5.560684 8.890625l1.21875 0l0 -5.046875q0.109375 -0.234375 0.28125 -0.421875q0.171875 -0.1875 0.359375 -0.328125q0.25 -0.171875 0.53125 -0.265625q0.28125 -0.09375 0.609375 -0.09375q0.390625 0 0.6875 0.09375q0.296875 0.09375 0.5 0.296875q0.203125 0.203125 0.3125 0.53125q0.109375 0.328125 0.109375 0.796875l0 4.4375l1.203125 0l0 -4.46875q0 -0.703125 -0.171875 -1.21875q-0.171875 -0.515625 -0.5 -0.84375q-0.3125 -0.328125 -0.765625 -0.484375q-0.453125 -0.15625 -1.015625 -0.15625q-0.40625 0 -0.78125 0.125q-0.359375 0.109375 -0.671875 0.3125q-0.203125 0.140625 -0.390625 0.328125q-0.1875 0.1875 -0.34375 0.40625l-0.078125 -1.046875l-1.09375 0l0 7.046875zm7.779434 -3.578125l0 0.140625q0 0.75 0.1875 1.40625q0.203125 0.65625 0.578125 1.140625q0.359375 0.46875 0.875 0.75q0.515625 0.265625 1.15625 0.265625q0.390625 0 0.71875 -0.078125q0.328125 -0.078125 0.609375 -0.234375q0.171875 -0.09375 0.328125 -0.21875q0.15625 -0.140625 0.296875 -0.296875l0 0.609375q0 0.453125 -0.140625 0.796875q-0.125 0.359375 -0.375 0.59375q-0.234375 0.25 -0.59375 0.375q-0.34375 0.125 -0.765625 0.125q-0.234375 0 -0.484375 -0.0625q-0.234375 -0.046875 -0.484375 -0.15625q-0.234375 -0.109375 -0.46875 -0.296875q-0.234375 -0.1875 -0.453125 -0.453125l-0.625 0.734375q0.234375 0.34375 0.5625 0.578125q0.34375 0.234375 0.703125 0.359375q0.359375 0.15625 0.703125 0.203125q0.359375 0.0625 0.640625 0.0625q0.65625 0 1.203125 -0.203125q0.546875 -0.1875 0.953125 -0.5625q0.390625 -0.375 0.609375 -0.921875q0.21875 -0.53125 0.21875 -1.234375l0 -6.890625l-1.09375 0l-0.0625 0.765625q-0.125 -0.15625 -0.265625 -0.28125q-0.140625 -0.125 -0.296875 -0.21875q-0.28125 -0.1875 -0.640625 -0.28125q-0.359375 -0.109375 -0.78125 -0.109375q-0.65625 0 -1.171875 0.265625q-0.515625 0.265625 -0.890625 0.75q-0.359375 0.46875 -0.5625 1.140625q-0.1875 0.65625 -0.1875 1.4375zm1.203125 0.140625l0 -0.140625q0 -0.515625 0.109375 -0.984375q0.109375 -0.46875 0.34375 -0.8125q0.234375 -0.359375 0.59375 -0.5625q0.359375 -0.21875 0.859375 -0.21875q0.3125 0 0.546875 0.078125q0.25 0.078125 0.453125 0.203125q0.203125 0.140625 0.359375 0.328125q0.15625 0.171875 0.28125 0.40625l0 3.21875q-0.125 0.234375 -0.28125 0.421875q-0.15625 0.1875 -0.34375 0.328125q-0.203125 0.125 -0.453125 0.203125q-0.25 0.078125 -0.5625 0.078125q-0.515625 0 -0.875 -0.203125q-0.34375 -0.203125 -0.578125 -0.5625q-0.234375 -0.34375 -0.34375 -0.796875q-0.109375 -0.46875 -0.109375 -0.984375z"
       fill-rule="nonzero"
       id="path48" />
    <path
       fill="#000000"
       d="m50.241837 63.4015q0 0.390625 -0.171875 0.6718712q-0.171875 0.28125 -0.4375 0.46875q-0.265625 0.1875 -0.609375 0.28125q-0.34375 0.078125 -0.6875 0.078125q-0.453125 0 -0.828125 -0.109375q-0.359375 -0.125 -0.65625 -0.375q-0.28125 -0.234375 -0.46875 -0.5781212q-0.171875 -0.34375 -0.234375 -0.78125l-1.234375 0q0.015625 0.609375 0.265625 1.1093712q0.25 0.5 0.6875 0.875q0.484375 0.421875 1.125 0.65625q0.65625 0.21875 1.34375 0.21875q0.5625 0 1.125 -0.15625q0.578125 -0.15625 1.015625 -0.46875q0.453125 -0.3125 0.734375 -0.78125q0.28125 -0.484375 0.28125 -1.1249962q0 -0.640625 -0.265625 -1.109375q-0.265625 -0.484375 -0.6875 -0.8125q-0.4375 -0.359375 -0.96875 -0.59375q-0.515625 -0.234375 -1.046875 -0.390625q-0.328125 -0.109375 -0.6875 -0.234375q-0.359375 -0.125 -0.65625 -0.328125q-0.3125 -0.1875 -0.515625 -0.46875q-0.203125 -0.28125 -0.21875 -0.703125q0 -0.375 0.15625 -0.65625q0.15625 -0.28125 0.421875 -0.484375q0.25 -0.1875 0.578125 -0.28125q0.328125 -0.109375 0.671875 -0.109375q0.4375 0 0.765625 0.140625q0.34375 0.125 0.59375 0.375q0.25 0.234375 0.390625 0.578125q0.15625 0.328125 0.203125 0.734375l1.25 0q-0.015625 -0.65625 -0.28125 -1.171875q-0.265625 -0.53125 -0.71875 -0.90625q-0.4375 -0.375 -1.015625 -0.578125q-0.5625 -0.203125 -1.1875 -0.203125q-0.5625 0 -1.125 0.171875q-0.546875 0.171875 -0.96875 0.515625q-0.4375 0.328125 -0.71875 0.8125q-0.265625 0.46875 -0.265625 1.09375q0 0.609375 0.265625 1.0625q0.28125 0.453125 0.703125 0.78125q0.421875 0.328125 0.9375 0.5625q0.515625 0.21875 1.015625 0.390625q0.359375 0.109375 0.71875 0.25q0.375 0.125 0.6875 0.328125q0.3125 0.21875 0.515625 0.515625q0.203125 0.296875 0.203125 0.734375zm6.154434 2.5156212q1.015625 0 1.71875 -0.40625q0.703125 -0.421875 1.046875 -0.953125l-0.734375 -0.5624962q-0.328125 0.4218712 -0.828125 0.6874962q-0.5 0.25 -1.140625 0.25q-0.5 0 -0.90625 -0.171875q-0.390625 -0.1875 -0.671875 -0.5q-0.28125 -0.2968712 -0.453125 -0.6874962q-0.15625 -0.390625 -0.203125 -0.90625l0 -0.046875l5.03125 0l0 -0.546875q0 -0.734375 -0.1875 -1.359375q-0.1875 -0.640625 -0.5625 -1.109375q-0.375 -0.453125 -0.953125 -0.71875q-0.5625 -0.265625 -1.3125 -0.265625q-0.609375 0 -1.1875 0.25q-0.578125 0.25 -1.03125 0.703125q-0.453125 0.46875 -0.734375 1.140625q-0.265625 0.671875 -0.265625 1.53125l0 0.265625q0 0.75 0.25 1.375q0.25 0.6249962 0.6875 1.0781212q0.453125 0.453125 1.0625 0.703125q0.625 0.25 1.375 0.25zm-0.15625 -6.312496q0.453125 0 0.78125 0.171875q0.34375 0.171875 0.5625 0.4375q0.21875 0.28125 0.34375 0.65625q0.125 0.375 0.125 0.703125l0 0.046875l-3.78125 0q0.0625 -0.484375 0.234375 -0.859375q0.1875 -0.375 0.453125 -0.625q0.265625 -0.265625 0.578125 -0.390625q0.328125 -0.140625 0.703125 -0.140625zm9.654434 -0.984375q-0.765625 0 -1.375 0.34375q-0.59375 0.328125 -1.03125 0.90625l0 -0.171875l-0.0625 -0.953125l-1.140625 0l0 7.046871l1.203125 0l0 -4.515621q0.125 -0.328125 0.296875 -0.59375q0.1875 -0.265625 0.421875 -0.4375q0.265625 -0.21875 0.625 -0.3125q0.359375 -0.109375 0.8125 -0.109375q0.34375 0 0.65625 0.03125q0.3125 0.03125 0.65625 0.109375l0.171875 -1.171875q-0.1875 -0.078125 -0.546875 -0.125q-0.359375 -0.046875 -0.6875 -0.046875zm5.779434 7.171871l0.921875 0l2.875 -7.046871l-1.234375 0l-1.96875 5.312496l-0.125 0.4375l-0.109375 -0.4375l-2.015625 -5.312496l-1.234375 0l2.890625 7.046871zm5.795059 -7.046871l0 1.046875l2.390625 0l0 4.953121l-2.390625 0l0 1.046875l5.890625 0l0 -1.046875l-2.296875 0l0 -5.999996l-3.59375 0zm2.234375 -1.84375q0 0.296875 0.171875 0.5q0.1875 0.1875 0.546875 0.1875q0.359375 0 0.53125 -0.1875q0.1875 -0.203125 0.1875 -0.5q0 -0.15625 -0.046875 -0.296875q-0.046875 -0.140625 -0.15625 -0.234375q-0.078125 -0.078125 -0.21875 -0.125q-0.125 -0.046875 -0.296875 -0.046875q-0.171875 0 -0.3125 0.046875q-0.125 0.046875 -0.203125 0.125q-0.109375 0.109375 -0.15625 0.25q-0.046875 0.125 -0.046875 0.28125zm8.560684 8.046871q-0.5625 0 -0.9375 -0.21875q-0.375 -0.234375 -0.609375 -0.59375q-0.234375 -0.3593712 -0.34375 -0.8124962q-0.09375 -0.453125 -0.09375 -0.921875l0 -0.265625q0 -0.453125 0.09375 -0.90625q0.109375 -0.453125 0.34375 -0.8125q0.234375 -0.359375 0.609375 -0.578125q0.390625 -0.234375 0.9375 -0.234375q0.375 0 0.6875 0.125q0.3125 0.125 0.546875 0.34375q0.21875 0.21875 0.34375 0.5q0.140625 0.28125 0.15625 0.59375l1.140625 0q0 -0.53125 -0.21875 -1.0q-0.21875 -0.46875 -0.59375 -0.8125q-0.375 -0.34375 -0.90625 -0.53125q-0.53125 -0.203125 -1.15625 -0.203125q-0.796875 0 -1.390625 0.296875q-0.59375 0.28125 -1.0 0.75q-0.40625 0.5 -0.609375 1.140625q-0.1875 0.625 -0.1875 1.328125l0 0.265625q0 0.703125 0.1875 1.34375q0.203125 0.6406212 0.609375 1.1093712q0.40625 0.5 1.0 0.78125q0.59375 0.28125 1.390625 0.28125q0.5625 0 1.078125 -0.1875q0.515625 -0.1875 0.921875 -0.515625q0.390625 -0.3125 0.625 -0.734375q0.234375 -0.4375 0.25 -0.9062462l-1.140625 0q-0.015625 0.296875 -0.15625 0.5468712q-0.140625 0.25 -0.390625 0.421875q-0.234375 0.203125 -0.546875 0.3125q-0.3125 0.09375 -0.640625 0.09375zm8.123184 0.96875q1.015625 0 1.71875 -0.40625q0.703125 -0.421875 1.046875 -0.953125l-0.734375 -0.5624962q-0.328125 0.4218712 -0.828125 0.6874962q-0.5 0.25 -1.140625 0.25q-0.5 0 -0.90625 -0.171875q-0.390625 -0.1875 -0.671875 -0.5q-0.28125 -0.2968712 -0.453125 -0.6874962q-0.15625 -0.390625 -0.203125 -0.90625l0 -0.046875l5.03125 0l0 -0.546875q0 -0.734375 -0.1875 -1.359375q-0.1875 -0.640625 -0.5625 -1.109375q-0.375 -0.453125 -0.953125 -0.71875q-0.5625 -0.265625 -1.3125 -0.265625q-0.609375 0 -1.1875 0.25q-0.578125 0.25 -1.03125 0.703125q-0.453125 0.46875 -0.734375 1.140625q-0.265625 0.671875 -0.265625 1.53125l0 0.265625q0 0.75 0.25 1.375q0.25 0.6249962 0.6875 1.0781212q0.453125 0.453125 1.0625 0.703125q0.625 0.25 1.375 0.25zm-0.15625 -6.312496q0.453125 0 0.78125 0.171875q0.34375 0.171875 0.5625 0.4375q0.21875 0.28125 0.34375 0.65625q0.125 0.375 0.125 0.703125l0 0.046875l-3.78125 0q0.0625 -0.484375 0.234375 -0.859375q0.1875 -0.375 0.453125 -0.625q0.265625 -0.265625 0.578125 -0.390625q0.328125 -0.140625 0.703125 -0.140625z"
       fill-rule="nonzero"
       id="path49" />
    <path
       fill="#000000"
       d="m59.411896 94.94838l-1.203125 0q-0.0625 0.421875 -0.203125 0.796875q-0.140625 0.359375 -0.375 0.625q-0.25 0.28125 -0.59375 0.4375q-0.34375 0.140625 -0.828125 0.140625q-0.4375 0 -0.765625 -0.140625q-0.3125 -0.140625 -0.5625 -0.390625q-0.234375 -0.234375 -0.390625 -0.546875q-0.15625 -0.328125 -0.25 -0.6875q-0.109375 -0.359375 -0.15625 -0.734375q-0.03125 -0.375 -0.03125 -0.734375l0 -1.328125q0 -0.359375 0.03125 -0.734375q0.046875 -0.375 0.15625 -0.71875q0.09375 -0.359375 0.25 -0.671875q0.15625 -0.328125 0.40625 -0.578125q0.234375 -0.234375 0.5625 -0.375q0.328125 -0.140625 0.75 -0.140625q0.484375 0 0.828125 0.171875q0.34375 0.15625 0.59375 0.421875q0.234375 0.28125 0.375 0.65625q0.140625 0.375 0.203125 0.796875l1.203125 0q-0.078125 -0.671875 -0.328125 -1.234375q-0.234375 -0.5625 -0.640625 -0.953125q-0.40625 -0.40625 -0.96875 -0.625q-0.546875 -0.21875 -1.265625 -0.21875q-0.59375 0 -1.0625 0.171875q-0.46875 0.15625 -0.84375 0.453125q-0.375 0.296875 -0.65625 0.703125q-0.265625 0.390625 -0.4375 0.859375q-0.1875 0.46875 -0.28125 0.984375q-0.078125 0.515625 -0.078125 1.046875l0 1.3125q0 0.53125 0.078125 1.046875q0.09375 0.515625 0.28125 0.984375q0.171875 0.46875 0.4375 0.875q0.28125 0.390625 0.65625 0.671875q0.375 0.296875 0.84375 0.46875q0.484375 0.15625 1.0625 0.15625q0.6875 0 1.234375 -0.21875q0.5625 -0.21875 0.984375 -0.609375q0.390625 -0.390625 0.640625 -0.9375q0.265625 -0.546875 0.34375 -1.203125zm2.0606842 -7.15625l0 1.046875l2.390625 0l0 7.90625l-2.390625 0l0 1.046875l5.890625 0l0 -1.046875l-2.296875 0l0 -8.953125l-3.59375 0zm7.466934 6.421875l0 0.140625q0 0.75 0.21875 1.40625q0.21875 0.65625 0.640625 1.140625q0.40625 0.46875 1.0 0.75q0.59375 0.265625 1.34375 0.265625q0.75 0 1.328125 -0.265625q0.59375 -0.28125 1.015625 -0.75q0.40625 -0.484375 0.625 -1.140625q0.234375 -0.65625 0.234375 -1.40625l0 -0.140625q0 -0.765625 -0.234375 -1.421875q-0.21875 -0.65625 -0.625 -1.140625q-0.421875 -0.484375 -1.015625 -0.75q-0.59375 -0.28125 -1.34375 -0.28125q-0.734375 0 -1.328125 0.28125q-0.59375 0.265625 -1.0 0.75q-0.421875 0.484375 -0.640625 1.140625q-0.21875 0.65625 -0.21875 1.421875zm1.203125 0.140625l0 -0.140625q0 -0.515625 0.125 -0.984375q0.125 -0.484375 0.375 -0.84375q0.25 -0.359375 0.609375 -0.5625q0.375 -0.21875 0.875 -0.21875q0.5 0 0.875 0.21875q0.375 0.203125 0.640625 0.5625q0.234375 0.359375 0.359375 0.84375q0.140625 0.46875 0.140625 0.984375l0 0.140625q0 0.515625 -0.125 0.984375q-0.125 0.46875 -0.375 0.828125q-0.25 0.359375 -0.625 0.578125q-0.375 0.203125 -0.875 0.203125q-0.5 0 -0.875 -0.203125q-0.375 -0.21875 -0.625 -0.578125q-0.25 -0.359375 -0.375 -0.828125q-0.125 -0.46875 -0.125 -0.984375zm11.763809 3.4375l1.09375 0l0 -7.046875l-1.203125 0l0 5.0625q-0.09375 0.21875 -0.25 0.421875q-0.140625 0.1875 -0.34375 0.3125q-0.234375 0.171875 -0.546875 0.265625q-0.3125 0.09375 -0.71875 0.09375q-0.34375 0 -0.609375 -0.078125q-0.265625 -0.09375 -0.453125 -0.328125q-0.171875 -0.21875 -0.265625 -0.59375q-0.09375 -0.375 -0.09375 -0.953125l0 -4.203125l-1.203125 0l0 4.1875q0 0.796875 0.171875 1.359375q0.171875 0.5625 0.484375 0.921875q0.328125 0.359375 0.765625 0.53125q0.453125 0.171875 1.015625 0.171875q0.6875 0 1.203125 -0.28125q0.53125 -0.296875 0.890625 -0.8125l0.0625 0.96875zm3.1388092 -3.578125l0 0.140625q0 0.75 0.203125 1.40625q0.203125 0.65625 0.5625 1.140625q0.359375 0.46875 0.875 0.75q0.53125 0.265625 1.15625 0.265625q0.65625 0 1.140625 -0.21875q0.5 -0.21875 0.84375 -0.640625l0.046875 0.734375l1.109375 0l0 -10.0l-1.203125 0l0 3.65625q-0.34375 -0.40625 -0.8125 -0.609375q-0.46875 -0.21875 -1.109375 -0.21875q-0.640625 0 -1.171875 0.265625q-0.515625 0.265625 -0.875 0.75q-0.375 0.46875 -0.578125 1.140625q-0.1875 0.65625 -0.1875 1.4375zm1.203125 0.140625l0 -0.140625q0 -0.515625 0.109375 -0.984375q0.109375 -0.46875 0.34375 -0.8125q0.234375 -0.359375 0.59375 -0.5625q0.359375 -0.21875 0.859375 -0.21875q0.59375 0 0.984375 0.28125q0.40625 0.28125 0.640625 0.703125l0 3.265625q-0.234375 0.46875 -0.640625 0.75q-0.390625 0.265625 -0.984375 0.265625q-0.515625 0 -0.875 -0.203125q-0.34375 -0.203125 -0.578125 -0.5625q-0.234375 -0.34375 -0.34375 -0.796875q-0.109375 -0.46875 -0.109375 -0.984375z"
       fill-rule="nonzero"
       id="path50" />
    <path
       fill="#cfe2f3"
       d="m218.82414 67.28084l7.05513 -8.110233l7.0551147 8.110233l-7.0551147 8.110237z"
       fill-rule="evenodd"
       id="path51" />
    <path
       stroke="#000000"
       stroke-width="1.0"
       stroke-linejoin="round"
       stroke-linecap="butt"
       d="m218.82414 67.28084l7.05513 -8.110233l7.0551147 8.110233l-7.0551147 8.110237z"
       fill-rule="evenodd"
       id="path52" />
    <path
       fill="#cfe2f3"
       d="m129.47244 67.37795l7.0551147 -8.110237l7.0551147 8.110237l-7.0551147 8.110237z"
       fill-rule="evenodd"
       id="path53" />
    <path
       stroke="#000000"
       stroke-width="1.0"
       stroke-linejoin="round"
       stroke-linecap="butt"
       d="m129.47244 67.37795l7.0551147 -8.110237l7.0551147 8.110237l-7.0551147 8.110237z"
       fill-rule="evenodd"
       id="path54" />
    <path
       fill="#000000"
       fill-opacity="0.0"
       d="m143.9895 67.28084l74.83464 0"
       fill-rule="evenodd"
       id="path55" />
    <path
       stroke="#000000"
       stroke-width="1.0"
       stroke-linejoin="round"
       stroke-linecap="butt"
       d="m149.9895 67.28084l62.83464 0"
       fill-rule="evenodd"
       id="path56" />
    <path
       fill="#000000"
       stroke="#000000"
       stroke-width="1.0"
       stroke-linecap="butt"
       d="m149.9895 65.629105l-4.538101 1.6517334l4.538101 1.6517334z"
       fill-rule="evenodd"
       id="path57" />
    <path
       fill="#000000"
       stroke="#000000"
       stroke-width="1.0"
       stroke-linecap="butt"
       d="m212.82414 68.93257l4.538101 -1.6517334l-4.538101 -1.6517334z"
       fill-rule="evenodd"
       id="path58" />
    <path
       fill="#f4cccc"
       d="m8.393701 154.2441l127.49607 0l0 127.49605l-127.49607 0z"
       fill-rule="evenodd"
       id="path59" />
    <path
       stroke="#000000"
       stroke-width="1.0"
       stroke-linejoin="round"
       stroke-linecap="butt"
       d="m8.393701 154.2441l127.49607 0l0 127.49605l-127.49607 0z"
       fill-rule="evenodd"
       id="path60" />
    <path
       fill="#000000"
       d="m44.41462 189.05275l1.859375 3.859375l1.28125 0l0 -0.078125l-2.015625 -4.046875q0.390625 -0.171875 0.71875 -0.40625q0.328125 -0.25 0.5625 -0.5625q0.234375 -0.3125 0.359375 -0.6875q0.140625 -0.390625 0.140625 -0.84375q0 -0.71875 -0.25 -1.25q-0.25 -0.53125 -0.6875 -0.890625q-0.4375 -0.34375 -1.03125 -0.515625q-0.578125 -0.1875 -1.25 -0.1875l-2.78125 0l0 9.46875l1.203125 0l0 -3.859375l1.890625 0zm-1.890625 -1.0l0 -3.625l1.578125 0q0.4375 0 0.796875 0.125q0.375 0.109375 0.640625 0.34375q0.265625 0.234375 0.421875 0.578125q0.15625 0.34375 0.15625 0.796875q0 0.421875 -0.15625 0.75q-0.15625 0.328125 -0.4375 0.5625q-0.265625 0.21875 -0.625 0.34375q-0.359375 0.125 -0.765625 0.125l-1.609375 0zm9.873184 4.984375q1.015625 0 1.71875 -0.40625q0.703125 -0.421875 1.046875 -0.953125l-0.734375 -0.5625q-0.328125 0.421875 -0.828125 0.6875q-0.5 0.25 -1.140625 0.25q-0.5 0 -0.90625 -0.171875q-0.390625 -0.1875 -0.671875 -0.5q-0.28125 -0.296875 -0.453125 -0.6875q-0.15625 -0.390625 -0.203125 -0.90625l0 -0.046875l5.03125 0l0 -0.546875q0 -0.734375 -0.1875 -1.359375q-0.1875 -0.640625 -0.5625 -1.109375q-0.375 -0.453125 -0.953125 -0.71875q-0.5625 -0.265625 -1.3125 -0.265625q-0.609375 0 -1.1875 0.25q-0.578125 0.25 -1.03125 0.703125q-0.453125 0.46875 -0.734375 1.140625q-0.265625 0.671875 -0.265625 1.53125l0 0.265625q0 0.75 0.25 1.375q0.25 0.625 0.6875 1.078125q0.453125 0.453125 1.0625 0.703125q0.625 0.25 1.375 0.25zm-0.15625 -6.3125q0.453125 0 0.78125 0.171875q0.34375 0.171875 0.5625 0.4375q0.21875 0.28125 0.34375 0.65625q0.125 0.375 0.125 0.703125l0 0.046875l-3.78125 0q0.0625 -0.484375 0.234375 -0.859375q0.1875 -0.375 0.453125 -0.625q0.265625 -0.265625 0.578125 -0.390625q0.328125 -0.140625 0.703125 -0.140625zm4.810684 2.609375l0 0.140625q0 0.75 0.1875 1.40625q0.203125 0.65625 0.578125 1.140625q0.359375 0.46875 0.875 0.75q0.515625 0.265625 1.15625 0.265625q0.390625 0 0.71875 -0.078125q0.328125 -0.078125 0.609375 -0.234375q0.171875 -0.09375 0.328125 -0.21875q0.15625 -0.140625 0.296875 -0.296875l0 0.609375q0 0.453125 -0.140625 0.796875q-0.125 0.359375 -0.375 0.59375q-0.234375 0.25 -0.59375 0.375q-0.34375 0.125 -0.765625 0.125q-0.234375 0 -0.484375 -0.0625q-0.234375 -0.046875 -0.484375 -0.15625q-0.234375 -0.109375 -0.46875 -0.296875q-0.234375 -0.1875 -0.453125 -0.453125l-0.625 0.734375q0.234375 0.34375 0.5625 0.578125q0.34375 0.234375 0.703125 0.359375q0.359375 0.15625 0.703125 0.203125q0.359375 0.0625 0.640625 0.0625q0.65625 0 1.203125 -0.203125q0.546875 -0.1875 0.953125 -0.5625q0.390625 -0.375 0.609375 -0.921875q0.21875 -0.53125 0.21875 -1.234375l0 -6.890625l-1.09375 0l-0.0625 0.765625q-0.125 -0.15625 -0.265625 -0.28125q-0.140625 -0.125 -0.296875 -0.21875q-0.28125 -0.1875 -0.640625 -0.28125q-0.359375 -0.109375 -0.78125 -0.109375q-0.65625 0 -1.171875 0.265625q-0.515625 0.265625 -0.890625 0.75q-0.359375 0.46875 -0.5625 1.140625q-0.1875 0.65625 -0.1875 1.4375zm1.203125 0.140625l0 -0.140625q0 -0.515625 0.109375 -0.984375q0.109375 -0.46875 0.34375 -0.8125q0.234375 -0.359375 0.59375 -0.5625q0.359375 -0.21875 0.859375 -0.21875q0.3125 0 0.546875 0.078125q0.25 0.078125 0.453125 0.203125q0.203125 0.140625 0.359375 0.328125q0.15625 0.171875 0.28125 0.40625l0 3.21875q-0.125 0.234375 -0.28125 0.421875q-0.15625 0.1875 -0.34375 0.328125q-0.203125 0.125 -0.453125 0.203125q-0.25 0.078125 -0.5625 0.078125q-0.515625 0 -0.875 -0.203125q-0.34375 -0.203125 -0.578125 -0.5625q-0.234375 -0.34375 -0.34375 -0.796875q-0.109375 -0.46875 -0.109375 -0.984375zm7.216934 -3.609375l0 1.046875l2.390625 0l0 4.953125l-2.390625 0l0 1.046875l5.890625 0l0 -1.046875l-2.296875 0l0 -6.0l-3.59375 0zm2.234375 -1.84375q0 0.296875 0.171875 0.5q0.1875 0.1875 0.546875 0.1875q0.359375 0 0.53125 -0.1875q0.1875 -0.203125 0.1875 -0.5q0 -0.15625 -0.046875 -0.296875q-0.046875 -0.140625 -0.15625 -0.234375q-0.078125 -0.078125 -0.21875 -0.125q-0.125 -0.046875 -0.296875 -0.046875q-0.171875 0 -0.3125 0.046875q-0.125 0.046875 -0.203125 0.125q-0.109375 0.109375 -0.15625 0.25q-0.046875 0.125 -0.046875 0.28125zm10.248184 7.015625q0 0.171875 -0.0625 0.328125q-0.0625 0.140625 -0.1875 0.265625q-0.203125 0.203125 -0.5625 0.328125q-0.359375 0.109375 -0.84375 0.109375q-0.296875 0 -0.609375 -0.0625q-0.3125 -0.0625 -0.578125 -0.21875q-0.25 -0.15625 -0.421875 -0.40625q-0.171875 -0.265625 -0.203125 -0.640625l-1.203125 0q0 0.453125 0.203125 0.875q0.203125 0.40625 0.59375 0.71875q0.390625 0.328125 0.9375 0.515625q0.5625 0.1875 1.28125 0.1875q0.625 0 1.15625 -0.140625q0.53125 -0.15625 0.90625 -0.421875q0.375 -0.28125 0.578125 -0.65625q0.21875 -0.390625 0.21875 -0.859375q0 -0.4375 -0.1875 -0.765625q-0.1875 -0.328125 -0.53125 -0.59375q-0.359375 -0.234375 -0.875 -0.40625q-0.515625 -0.1875 -1.15625 -0.328125q-0.5 -0.09375 -0.828125 -0.203125q-0.3125 -0.109375 -0.5 -0.234375q-0.203125 -0.125 -0.28125 -0.28125q-0.078125 -0.171875 -0.078125 -0.375q0 -0.203125 0.09375 -0.390625q0.109375 -0.203125 0.296875 -0.34375q0.1875 -0.140625 0.46875 -0.21875q0.296875 -0.09375 0.6875 -0.09375q0.375 0 0.671875 0.109375q0.296875 0.109375 0.5 0.265625q0.203125 0.171875 0.3125 0.390625q0.125 0.21875 0.125 0.453125l1.203125 0q0 -0.46875 -0.203125 -0.859375q-0.1875 -0.40625 -0.546875 -0.703125q-0.375 -0.296875 -0.890625 -0.46875q-0.515625 -0.171875 -1.171875 -0.171875q-0.609375 0 -1.109375 0.171875q-0.5 0.15625 -0.875 0.4375q-0.359375 0.28125 -0.5625 0.65625q-0.203125 0.375 -0.203125 0.796875q0 0.4375 0.1875 0.765625q0.203125 0.328125 0.5625 0.5625q0.359375 0.25 0.84375 0.4375q0.5 0.171875 1.109375 0.296875q0.5 0.09375 0.828125 0.21875q0.328125 0.109375 0.53125 0.25q0.203125 0.15625 0.28125 0.328125q0.09375 0.171875 0.09375 0.375zm6.170059 -6.875l-1.21875 0l0 1.703125l-1.84375 0l0 0.9375l1.84375 0l0 3.828125q0 0.640625 0.171875 1.109375q0.1875 0.453125 0.484375 0.75q0.296875 0.28125 0.703125 0.421875q0.40625 0.125 0.875 0.125q0.28125 0 0.5625 -0.03125q0.28125 -0.015625 0.53125 -0.0625q0.265625 -0.046875 0.46875 -0.109375q0.21875 -0.078125 0.375 -0.171875l-0.171875 -0.84375q-0.109375 0.015625 -0.28125 0.0625q-0.171875 0.03125 -0.375 0.0625q-0.203125 0.03125 -0.40625 0.0625q-0.203125 0.015625 -0.40625 0.015625q-0.265625 0 -0.5 -0.0625q-0.234375 -0.0625 -0.421875 -0.234375q-0.1875 -0.15625 -0.296875 -0.421875q-0.09375 -0.265625 -0.09375 -0.671875l0 -3.828125l2.6875 0l0 -0.9375l-2.6875 0l0 -1.703125zm9.763809 1.578125q-0.765625 0 -1.375 0.34375q-0.59375 0.328125 -1.03125 0.90625l0 -0.171875l-0.0625 -0.953125l-1.140625 0l0 7.046875l1.203125 0l0 -4.515625q0.125 -0.328125 0.296875 -0.59375q0.1875 -0.265625 0.421875 -0.4375q0.265625 -0.21875 0.625 -0.3125q0.359375 -0.109375 0.8125 -0.109375q0.34375 0 0.65625 0.03125q0.3125 0.03125 0.65625 0.109375l0.171875 -1.171875q-0.1875 -0.078125 -0.546875 -0.125q-0.359375 -0.046875 -0.6875 -0.046875zm3.9513092 10.015625q0.46875 0 0.828125 -0.171875q0.375 -0.171875 0.640625 -0.4375q0.28125 -0.265625 0.46875 -0.578125q0.1875 -0.296875 0.3125 -0.5625l3.578125 -8.140625l-1.34375 0l-1.828125 4.578125l-0.328125 0.828125l-0.3125 -0.859375l-1.921875 -4.546875l-1.359375 0l3.03125 6.71875l-0.46875 0.9375q-0.078125 0.125 -0.1875 0.328125q-0.109375 0.203125 -0.265625 0.390625q-0.171875 0.1875 -0.375 0.328125q-0.203125 0.140625 -0.453125 0.140625q-0.078125 0 -0.25 -0.015625q-0.15625 -0.015625 -0.3125 -0.03125l-0.203125 0.984375q0.125 0.03125 0.34375 0.0625q0.234375 0.046875 0.40625 0.046875z"
       fill-rule="nonzero"
       id="path61" />
    <path
       fill="#000000"
       d="m50.241837 207.4015q0 0.390625 -0.171875 0.671875q-0.171875 0.28125 -0.4375 0.46875q-0.265625 0.1875 -0.609375 0.28125q-0.34375 0.078125 -0.6875 0.078125q-0.453125 0 -0.828125 -0.109375q-0.359375 -0.125 -0.65625 -0.375q-0.28125 -0.234375 -0.46875 -0.578125q-0.171875 -0.34375 -0.234375 -0.78125l-1.234375 0q0.015625 0.609375 0.265625 1.109375q0.25 0.5 0.6875 0.875q0.484375 0.421875 1.125 0.65625q0.65625 0.21875 1.34375 0.21875q0.5625 0 1.125 -0.15625q0.578125 -0.15625 1.015625 -0.46875q0.453125 -0.3125 0.734375 -0.78125q0.28125 -0.484375 0.28125 -1.125q0 -0.640625 -0.265625 -1.109375q-0.265625 -0.484375 -0.6875 -0.8125q-0.4375 -0.359375 -0.96875 -0.59375q-0.515625 -0.234375 -1.046875 -0.390625q-0.328125 -0.109375 -0.6875 -0.234375q-0.359375 -0.125 -0.65625 -0.328125q-0.3125 -0.1875 -0.515625 -0.46875q-0.203125 -0.28125 -0.21875 -0.703125q0 -0.375 0.15625 -0.65625q0.15625 -0.28125 0.421875 -0.484375q0.25 -0.1875 0.578125 -0.28125q0.328125 -0.109375 0.671875 -0.109375q0.4375 0 0.765625 0.140625q0.34375 0.125 0.59375 0.375q0.25 0.234375 0.390625 0.578125q0.15625 0.328125 0.203125 0.734375l1.25 0q-0.015625 -0.65625 -0.28125 -1.171875q-0.265625 -0.53125 -0.71875 -0.90625q-0.4375 -0.375 -1.015625 -0.578125q-0.5625 -0.203125 -1.1875 -0.203125q-0.5625 0 -1.125 0.171875q-0.546875 0.171875 -0.96875 0.515625q-0.4375 0.328125 -0.71875 0.8125q-0.265625 0.46875 -0.265625 1.09375q0 0.609375 0.265625 1.0625q0.28125 0.453125 0.703125 0.78125q0.421875 0.328125 0.9375 0.5625q0.515625 0.21875 1.015625 0.390625q0.359375 0.109375 0.71875 0.25q0.375 0.125 0.6875 0.328125q0.3125 0.21875 0.515625 0.515625q0.203125 0.296875 0.203125 0.734375zm6.154434 2.515625q1.015625 0 1.71875 -0.40625q0.703125 -0.421875 1.046875 -0.953125l-0.734375 -0.5625q-0.328125 0.421875 -0.828125 0.6875q-0.5 0.25 -1.140625 0.25q-0.5 0 -0.90625 -0.171875q-0.390625 -0.1875 -0.671875 -0.5q-0.28125 -0.296875 -0.453125 -0.6875q-0.15625 -0.390625 -0.203125 -0.90625l0 -0.046875l5.03125 0l0 -0.546875q0 -0.734375 -0.1875 -1.359375q-0.1875 -0.640625 -0.5625 -1.109375q-0.375 -0.453125 -0.953125 -0.71875q-0.5625 -0.265625 -1.3125 -0.265625q-0.609375 0 -1.1875 0.25q-0.578125 0.25 -1.03125 0.703125q-0.453125 0.46875 -0.734375 1.140625q-0.265625 0.671875 -0.265625 1.53125l0 0.265625q0 0.75 0.25 1.375q0.25 0.625 0.6875 1.078125q0.453125 0.453125 1.0625 0.703125q0.625 0.25 1.375 0.25zm-0.15625 -6.3125q0.453125 0 0.78125 0.171875q0.34375 0.171875 0.5625 0.4375q0.21875 0.28125 0.34375 0.65625q0.125 0.375 0.125 0.703125l0 0.046875l-3.78125 0q0.0625 -0.484375 0.234375 -0.859375q0.1875 -0.375 0.453125 -0.625q0.265625 -0.265625 0.578125 -0.390625q0.328125 -0.140625 0.703125 -0.140625zm9.654434 -0.984375q-0.765625 0 -1.375 0.34375q-0.59375 0.328125 -1.03125 0.90625l0 -0.171875l-0.0625 -0.953125l-1.140625 0l0 7.046875l1.203125 0l0 -4.515625q0.125 -0.328125 0.296875 -0.59375q0.1875 -0.265625 0.421875 -0.4375q0.265625 -0.21875 0.625 -0.3125q0.359375 -0.109375 0.8125 -0.109375q0.34375 0 0.65625 0.03125q0.3125 0.03125 0.65625 0.109375l0.171875 -1.171875q-0.1875 -0.078125 -0.546875 -0.125q-0.359375 -0.046875 -0.6875 -0.046875zm5.779434 7.171875l0.921875 0l2.875 -7.046875l-1.234375 0l-1.96875 5.3125l-0.125 0.4375l-0.109375 -0.4375l-2.015625 -5.3125l-1.234375 0l2.890625 7.046875zm5.795059 -7.046875l0 1.046875l2.390625 0l0 4.953125l-2.390625 0l0 1.046875l5.890625 0l0 -1.046875l-2.296875 0l0 -6.0l-3.59375 0zm2.234375 -1.84375q0 0.296875 0.171875 0.5q0.1875 0.1875 0.546875 0.1875q0.359375 0 0.53125 -0.1875q0.1875 -0.203125 0.1875 -0.5q0 -0.15625 -0.046875 -0.296875q-0.046875 -0.140625 -0.15625 -0.234375q-0.078125 -0.078125 -0.21875 -0.125q-0.125 -0.046875 -0.296875 -0.046875q-0.171875 0 -0.3125 0.046875q-0.125 0.046875 -0.203125 0.125q-0.109375 0.109375 -0.15625 0.25q-0.046875 0.125 -0.046875 0.28125zm8.560684 8.046875q-0.5625 0 -0.9375 -0.21875q-0.375 -0.234375 -0.609375 -0.59375q-0.234375 -0.359375 -0.34375 -0.8125q-0.09375 -0.453125 -0.09375 -0.921875l0 -0.265625q0 -0.453125 0.09375 -0.90625q0.109375 -0.453125 0.34375 -0.8125q0.234375 -0.359375 0.609375 -0.578125q0.390625 -0.234375 0.9375 -0.234375q0.375 0 0.6875 0.125q0.3125 0.125 0.546875 0.34375q0.21875 0.21875 0.34375 0.5q0.140625 0.28125 0.15625 0.59375l1.140625 0q0 -0.53125 -0.21875 -1.0q-0.21875 -0.46875 -0.59375 -0.8125q-0.375 -0.34375 -0.90625 -0.53125q-0.53125 -0.203125 -1.15625 -0.203125q-0.796875 0 -1.390625 0.296875q-0.59375 0.28125 -1.0 0.75q-0.40625 0.5 -0.609375 1.140625q-0.1875 0.625 -0.1875 1.328125l0 0.265625q0 0.703125 0.1875 1.34375q0.203125 0.640625 0.609375 1.109375q0.40625 0.5 1.0 0.78125q0.59375 0.28125 1.390625 0.28125q0.5625 0 1.078125 -0.1875q0.515625 -0.1875 0.921875 -0.515625q0.390625 -0.3125 0.625 -0.734375q0.234375 -0.4375 0.25 -0.90625l-1.140625 0q-0.015625 0.296875 -0.15625 0.546875q-0.140625 0.25 -0.390625 0.421875q-0.234375 0.203125 -0.546875 0.3125q-0.3125 0.09375 -0.640625 0.09375zm8.123184 0.96875q1.015625 0 1.71875 -0.40625q0.703125 -0.421875 1.046875 -0.953125l-0.734375 -0.5625q-0.328125 0.421875 -0.828125 0.6875q-0.5 0.25 -1.140625 0.25q-0.5 0 -0.90625 -0.171875q-0.390625 -0.1875 -0.671875 -0.5q-0.28125 -0.296875 -0.453125 -0.6875q-0.15625 -0.390625 -0.203125 -0.90625l0 -0.046875l5.03125 0l0 -0.546875q0 -0.734375 -0.1875 -1.359375q-0.1875 -0.640625 -0.5625 -1.109375q-0.375 -0.453125 -0.953125 -0.71875q-0.5625 -0.265625 -1.3125 -0.265625q-0.609375 0 -1.1875 0.25q-0.578125 0.25 -1.03125 0.703125q-0.453125 0.46875 -0.734375 1.140625q-0.265625 0.671875 -0.265625 1.53125l0 0.265625q0 0.75 0.25 1.375q0.25 0.625 0.6875 1.078125q0.453125 0.453125 1.0625 0.703125q0.625 0.25 1.375 0.25zm-0.15625 -6.3125q0.453125 0 0.78125 0.171875q0.34375 0.171875 0.5625 0.4375q0.21875 0.28125 0.34375 0.65625q0.125 0.375 0.125 0.703125l0 0.046875l-3.78125 0q0.0625 -0.484375 0.234375 -0.859375q0.1875 -0.375 0.453125 -0.625q0.265625 -0.265625 0.578125 -0.390625q0.328125 -0.140625 0.703125 -0.140625z"
       fill-rule="nonzero"
       id="path62" />
    <path
       fill="#000000"
       d="m59.411896 238.94838l-1.203125 0q-0.0625 0.421875 -0.203125 0.796875q-0.140625 0.359375 -0.375 0.625q-0.25 0.28125 -0.59375 0.4375q-0.34375 0.140625 -0.828125 0.140625q-0.4375 0 -0.765625 -0.140625q-0.3125 -0.140625 -0.5625 -0.390625q-0.234375 -0.234375 -0.390625 -0.546875q-0.15625 -0.328125 -0.25 -0.6875q-0.109375 -0.359375 -0.15625 -0.734375q-0.03125 -0.375 -0.03125 -0.734375l0 -1.328125q0 -0.359375 0.03125 -0.734375q0.046875 -0.375 0.15625 -0.71875q0.09375 -0.359375 0.25 -0.671875q0.15625 -0.328125 0.40625 -0.578125q0.234375 -0.234375 0.5625 -0.375q0.328125 -0.140625 0.75 -0.140625q0.484375 0 0.828125 0.171875q0.34375 0.15625 0.59375 0.421875q0.234375 0.28125 0.375 0.65625q0.140625 0.375 0.203125 0.796875l1.203125 0q-0.078125 -0.671875 -0.328125 -1.234375q-0.234375 -0.5625 -0.640625 -0.953125q-0.40625 -0.40625 -0.96875 -0.625q-0.546875 -0.21875 -1.265625 -0.21875q-0.59375 0 -1.0625 0.171875q-0.46875 0.15625 -0.84375 0.453125q-0.375 0.296875 -0.65625 0.703125q-0.265625 0.390625 -0.4375 0.859375q-0.1875 0.46875 -0.28125 0.984375q-0.078125 0.515625 -0.078125 1.046875l0 1.3125q0 0.53125 0.078125 1.046875q0.09375 0.515625 0.28125 0.984375q0.171875 0.46875 0.4375 0.875q0.28125 0.390625 0.65625 0.671875q0.375 0.296875 0.84375 0.46875q0.484375 0.15625 1.0625 0.15625q0.6875 0 1.234375 -0.21875q0.5625 -0.21875 0.984375 -0.609375q0.390625 -0.390625 0.640625 -0.9375q0.265625 -0.546875 0.34375 -1.203125zm2.0606842 -7.15625l0 1.046875l2.390625 0l0 7.90625l-2.390625 0l0 1.046875l5.890625 0l0 -1.046875l-2.296875 0l0 -8.953125l-3.59375 0zm7.466934 6.421875l0 0.140625q0 0.75 0.21875 1.40625q0.21875 0.65625 0.640625 1.140625q0.40625 0.46875 1.0 0.75q0.59375 0.265625 1.34375 0.265625q0.75 0 1.328125 -0.265625q0.59375 -0.28125 1.015625 -0.75q0.40625 -0.484375 0.625 -1.140625q0.234375 -0.65625 0.234375 -1.40625l0 -0.140625q0 -0.765625 -0.234375 -1.421875q-0.21875 -0.65625 -0.625 -1.140625q-0.421875 -0.484375 -1.015625 -0.75q-0.59375 -0.28125 -1.34375 -0.28125q-0.734375 0 -1.328125 0.28125q-0.59375 0.265625 -1.0 0.75q-0.421875 0.484375 -0.640625 1.140625q-0.21875 0.65625 -0.21875 1.421875zm1.203125 0.140625l0 -0.140625q0 -0.515625 0.125 -0.984375q0.125 -0.484375 0.375 -0.84375q0.25 -0.359375 0.609375 -0.5625q0.375 -0.21875 0.875 -0.21875q0.5 0 0.875 0.21875q0.375 0.203125 0.640625 0.5625q0.234375 0.359375 0.359375 0.84375q0.140625 0.46875 0.140625 0.984375l0 0.140625q0 0.515625 -0.125 0.984375q-0.125 0.46875 -0.375 0.828125q-0.25 0.359375 -0.625 0.578125q-0.375 0.203125 -0.875 0.203125q-0.5 0 -0.875 -0.203125q-0.375 -0.21875 -0.625 -0.578125q-0.25 -0.359375 -0.375 -0.828125q-0.125 -0.46875 -0.125 -0.984375zm11.763809 3.4375l1.09375 0l0 -7.046875l-1.203125 0l0 5.0625q-0.09375 0.21875 -0.25 0.421875q-0.140625 0.1875 -0.34375 0.3125q-0.234375 0.171875 -0.546875 0.265625q-0.3125 0.09375 -0.71875 0.09375q-0.34375 0 -0.609375 -0.078125q-0.265625 -0.09375 -0.453125 -0.328125q-0.171875 -0.21875 -0.265625 -0.59375q-0.09375 -0.375 -0.09375 -0.953125l0 -4.203125l-1.203125 0l0 4.1875q0 0.796875 0.171875 1.359375q0.171875 0.5625 0.484375 0.921875q0.328125 0.359375 0.765625 0.53125q0.453125 0.171875 1.015625 0.171875q0.6875 0 1.203125 -0.28125q0.53125 -0.296875 0.890625 -0.8125l0.0625 0.96875zm3.1388092 -3.578125l0 0.140625q0 0.75 0.203125 1.40625q0.203125 0.65625 0.5625 1.140625q0.359375 0.46875 0.875 0.75q0.53125 0.265625 1.15625 0.265625q0.65625 0 1.140625 -0.21875q0.5 -0.21875 0.84375 -0.640625l0.046875 0.734375l1.109375 0l0 -10.0l-1.203125 0l0 3.65625q-0.34375 -0.40625 -0.8125 -0.609375q-0.46875 -0.21875 -1.109375 -0.21875q-0.640625 0 -1.171875 0.265625q-0.515625 0.265625 -0.875 0.75q-0.375 0.46875 -0.578125 1.140625q-0.1875 0.65625 -0.1875 1.4375zm1.203125 0.140625l0 -0.140625q0 -0.515625 0.109375 -0.984375q0.109375 -0.46875 0.34375 -0.8125q0.234375 -0.359375 0.59375 -0.5625q0.359375 -0.21875 0.859375 -0.21875q0.59375 0 0.984375 0.28125q0.40625 0.28125 0.640625 0.703125l0 3.265625q-0.234375 0.46875 -0.640625 0.75q-0.390625 0.265625 -0.984375 0.265625q-0.515625 0 -0.875 -0.203125q-0.34375 -0.203125 -0.578125 -0.5625q-0.234375 -0.34375 -0.34375 -0.796875q-0.109375 -0.46875 -0.109375 -0.984375z"
       fill-rule="nonzero"
       id="path63" />
    <path
       fill="#cfe2f3"
       d="m129.47244 211.37796l7.0551147 -8.110245l7.0551147 8.110245l-7.0551147 8.1102295z"
       fill-rule="evenodd"
       id="path64" />
    <path
       stroke="#000000"
       stroke-width="1.0"
       stroke-linejoin="round"
       stroke-linecap="butt"
       d="m129.47244 211.37796l7.0551147 -8.110245l7.0551147 8.110245l-7.0551147 8.1102295z"
       fill-rule="evenodd"
       id="path65" />
    <path
       fill="#000000"
       fill-opacity="0.0"
       d="m218.82414 67.28084c-18.810272 0 -28.215027 36.02362 -37.620544 72.04724c-9.405502 36.02362 -18.811768 72.04726 -37.62355 72.04726"
       fill-rule="evenodd"
       id="path66" />
    <path
       stroke="#000000"
       stroke-width="1.0"
       stroke-linejoin="round"
       stroke-linecap="butt"
       d="m218.82414 67.28084c-18.810257 0 -28.215027 36.02362 -37.620544 72.04724c-4.702759 18.01181 -9.405701 36.02362 -15.284424 49.532486c-2.9393616 6.754425 -6.1726685 12.383118 -9.846878 16.323196c-1.8370972 1.970047 -3.7844238 3.517929 -5.8603363 4.5733185c-0.12976074 0.065963745 -0.26000977 0.13000488 -0.39076233 0.1920929l-0.37384033 0.17131042"
       fill-rule="evenodd"
       id="path67" />
    <path
       fill="#000000"
       stroke="#000000"
       stroke-width="1.0"
       stroke-linecap="butt"
       d="m149.10191 208.50528l-4.092285 2.5643005l4.783188 0.6661072z"
       fill-rule="evenodd"
       id="path68" />
    <path
       fill="#000000"
       fill-opacity="0.0"
       d="m207.1076 3.0853019l2.6141815 316.8819"
       fill-rule="evenodd"
       id="path69" />
    <path
       stroke="#666666"
       stroke-width="1.0"
       stroke-linejoin="round"
       stroke-linecap="butt"
       stroke-dasharray="1.0,3.0"
       d="m207.1076 3.0853019l2.6141815 316.8819"
       fill-rule="evenodd"
       id="path70" />
    <path
       fill="#f3f3f3"
       d="m326.77823 178.84514l127.49606 0l0 127.49608l-127.49606 0z"
       fill-rule="evenodd"
       id="path71" />
    <path
       stroke="#000000"
       stroke-width="1.0"
       stroke-linejoin="round"
       stroke-linecap="butt"
       d="m326.77823 178.84514l127.49606 0l0 127.49608l-127.49606 0z"
       fill-rule="evenodd"
       id="path72" />
    <path
       fill="#000000"
       d="m350.67743 237.68504l0 -1.4375l-9.84375 0l0 1.4375l4.109375 0l0 11.828125l1.640625 0l0 -11.828125l4.09375 0zm6.6018066 12.015625q1.4375 0 2.421875 -0.578125q0.984375 -0.578125 1.46875 -1.328125l-1.03125 -0.796875q-0.46875 0.59375 -1.171875 0.96875q-0.6875 0.359375 -1.59375 0.359375q-0.6875 0 -1.25 -0.25q-0.5625 -0.265625 -0.96875 -0.71875q-0.390625 -0.40625 -0.609375 -0.953125q-0.21875 -0.546875 -0.28125 -1.265625l0 -0.078125l7.03125 0l0 -0.75q0 -1.03125 -0.265625 -1.90625q-0.25 -0.890625 -0.78125 -1.546875q-0.53125 -0.640625 -1.328125 -1.0q-0.796875 -0.375 -1.859375 -0.375q-0.84375 0 -1.65625 0.34375q-0.796875 0.34375 -1.4375 0.984375q-0.625 0.65625 -1.015625 1.609375q-0.375 0.9375 -0.375 2.125l0 0.390625q0 1.03125 0.34375 1.90625q0.34375 0.875 0.96875 1.5q0.609375 0.640625 1.484375 1.0q0.875 0.359375 1.90625 0.359375zm-0.21875 -8.84375q0.65625 0 1.125 0.234375q0.46875 0.234375 0.765625 0.625q0.3125 0.375 0.484375 0.90625q0.171875 0.515625 0.171875 0.984375l0 0.078125l-5.296875 0q0.09375 -0.6875 0.34375 -1.203125q0.265625 -0.53125 0.625 -0.890625q0.359375 -0.359375 0.8125 -0.546875q0.453125 -0.1875 0.96875 -0.1875zm13.617462 6.046875q0 0.234375 -0.09375 0.453125q-0.09375 0.203125 -0.265625 0.375q-0.28125 0.28125 -0.78125 0.4375q-0.5 0.15625 -1.171875 0.15625q-0.4375 0 -0.875 -0.078125q-0.4375 -0.09375 -0.796875 -0.3125q-0.359375 -0.21875 -0.609375 -0.578125q-0.234375 -0.359375 -0.265625 -0.875l-1.6875 0q0 0.625 0.28125 1.21875q0.296875 0.578125 0.84375 1.015625q0.53125 0.4375 1.3125 0.71875q0.78125 0.265625 1.796875 0.265625q0.875 0 1.609375 -0.203125q0.734375 -0.21875 1.265625 -0.609375q0.53125 -0.375 0.8125 -0.90625q0.296875 -0.546875 0.296875 -1.203125q0 -0.609375 -0.265625 -1.0625q-0.25 -0.46875 -0.734375 -0.828125q-0.5 -0.34375 -1.21875 -0.59375q-0.71875 -0.25 -1.625 -0.453125q-0.6875 -0.125 -1.140625 -0.265625q-0.453125 -0.15625 -0.71875 -0.34375q-0.28125 -0.171875 -0.390625 -0.40625q-0.109375 -0.234375 -0.109375 -0.515625q0 -0.28125 0.140625 -0.546875q0.140625 -0.265625 0.40625 -0.46875q0.265625 -0.203125 0.671875 -0.3125q0.40625 -0.125 0.953125 -0.125q0.515625 0 0.921875 0.15625q0.421875 0.140625 0.71875 0.375q0.28125 0.234375 0.4375 0.546875q0.171875 0.296875 0.171875 0.625l1.6875 0q0 -0.65625 -0.28125 -1.21875q-0.265625 -0.5625 -0.78125 -0.96875q-0.515625 -0.421875 -1.25 -0.65625q-0.71875 -0.234375 -1.625 -0.234375q-0.859375 0 -1.5625 0.234375q-0.703125 0.21875 -1.21875 0.609375q-0.5 0.390625 -0.78125 0.921875q-0.28125 0.515625 -0.28125 1.109375q0 0.609375 0.265625 1.078125q0.28125 0.453125 0.78125 0.796875q0.484375 0.34375 1.171875 0.59375q0.703125 0.234375 1.5625 0.421875q0.6875 0.125 1.140625 0.296875q0.46875 0.171875 0.75 0.375q0.28125 0.203125 0.40625 0.4375q0.125 0.234375 0.125 0.546875zm8.633057 -9.640625l-1.703125 0l0 2.390625l-2.578125 0l0 1.3125l2.578125 0l0 5.34375q0 0.921875 0.234375 1.5625q0.25 0.640625 0.671875 1.046875q0.421875 0.40625 0.984375 0.59375q0.578125 0.1875 1.234375 0.1875q0.390625 0 0.78125 -0.046875q0.40625 -0.03125 0.75 -0.109375q0.359375 -0.0625 0.65625 -0.15625q0.296875 -0.09375 0.515625 -0.21875l-0.234375 -1.203125q-0.15625 0.046875 -0.40625 0.09375q-0.234375 0.046875 -0.515625 0.09375q-0.28125 0.046875 -0.578125 0.078125q-0.28125 0.03125 -0.546875 0.03125q-0.375 0 -0.71875 -0.09375q-0.328125 -0.09375 -0.578125 -0.3125q-0.265625 -0.21875 -0.40625 -0.59375q-0.140625 -0.375 -0.140625 -0.953125l0 -5.34375l3.75 0l0 -1.3125l-3.75 0l0 -2.390625zm11.554962 12.4375q1.4375 0 2.421875 -0.578125q0.984375 -0.578125 1.46875 -1.328125l-1.03125 -0.796875q-0.46875 0.59375 -1.171875 0.96875q-0.6875 0.359375 -1.59375 0.359375q-0.6875 0 -1.25 -0.25q-0.5625 -0.265625 -0.96875 -0.71875q-0.390625 -0.40625 -0.609375 -0.953125q-0.21875 -0.546875 -0.28125 -1.265625l0 -0.078125l7.03125 0l0 -0.75q0 -1.03125 -0.265625 -1.90625q-0.25 -0.890625 -0.78125 -1.546875q-0.53125 -0.640625 -1.328125 -1.0q-0.796875 -0.375 -1.859375 -0.375q-0.84375 0 -1.65625 0.34375q-0.796875 0.34375 -1.4375 0.984375q-0.625 0.65625 -1.015625 1.609375q-0.375 0.9375 -0.375 2.125l0 0.390625q0 1.03125 0.34375 1.90625q0.34375 0.875 0.96875 1.5q0.609375 0.640625 1.484375 1.0q0.875 0.359375 1.90625 0.359375zm-0.21875 -8.84375q0.65625 0 1.125 0.234375q0.46875 0.234375 0.765625 0.625q0.3125 0.375 0.484375 0.90625q0.171875 0.515625 0.171875 0.984375l0 0.078125l-5.296875 0q0.09375 -0.6875 0.34375 -1.203125q0.265625 -0.53125 0.625 -0.890625q0.359375 -0.359375 0.8125 -0.546875q0.453125 -0.1875 0.96875 -0.1875zm13.523682 -1.375q-1.078125 0 -1.921875 0.46875q-0.84375 0.46875 -1.4375 1.265625l-0.015625 -0.234375l-0.078125 -1.328125l-1.59375 0l0 9.859375l1.6875 0l0 -6.328125q0.171875 -0.453125 0.421875 -0.8125q0.25 -0.375 0.578125 -0.625q0.375 -0.296875 0.875 -0.4375q0.5 -0.15625 1.125 -0.15625q0.484375 0 0.921875 0.046875q0.453125 0.046875 0.9375 0.15625l0.234375 -1.640625q-0.265625 -0.109375 -0.765625 -0.171875q-0.5 -0.0625 -0.96875 -0.0625zm17.766144 4.71875l2.625 0q0.890625 -0.015625 1.6875 -0.28125q0.796875 -0.265625 1.390625 -0.765625q0.609375 -0.5 0.953125 -1.234375q0.359375 -0.734375 0.359375 -1.6875q0 -0.953125 -0.359375 -1.6875q-0.34375 -0.75 -0.953125 -1.25q-0.59375 -0.5 -1.390625 -0.765625q-0.796875 -0.265625 -1.6875 -0.28125l-4.3125 0l0 13.265625l1.6875 0l0 -5.3125zm0 -1.390625l0 -5.171875l2.625 0q0.578125 0 1.0625 0.1875q0.5 0.1875 0.875 0.515625q0.34375 0.34375 0.546875 0.828125q0.21875 0.484375 0.21875 1.078125q0 0.609375 -0.21875 1.078125q-0.203125 0.46875 -0.5625 0.796875q-0.359375 0.328125 -0.859375 0.5q-0.484375 0.171875 -1.0625 0.1875l-2.625 0zm17.945587 2.71875l-1.6875 0q-0.078125 0.59375 -0.28125 1.109375q-0.203125 0.515625 -0.53125 0.890625q-0.34375 0.375 -0.828125 0.59375q-0.484375 0.203125 -1.15625 0.203125q-0.609375 0 -1.0625 -0.1875q-0.453125 -0.203125 -0.796875 -0.546875q-0.328125 -0.34375 -0.546875 -0.78125q-0.21875 -0.453125 -0.359375 -0.953125q-0.140625 -0.5 -0.203125 -1.015625q-0.046875 -0.53125 -0.046875 -1.03125l0 -1.859375q0 -0.5 0.046875 -1.015625q0.0625 -0.53125 0.203125 -1.03125q0.140625 -0.5 0.359375 -0.9375q0.21875 -0.453125 0.5625 -0.796875q0.328125 -0.328125 0.78125 -0.515625q0.46875 -0.203125 1.0625 -0.203125q0.671875 0 1.15625 0.21875q0.484375 0.21875 0.828125 0.609375q0.328125 0.390625 0.53125 0.921875q0.203125 0.515625 0.28125 1.109375l1.6875 0q-0.109375 -0.9375 -0.453125 -1.71875q-0.34375 -0.796875 -0.90625 -1.359375q-0.5625 -0.546875 -1.34375 -0.859375q-0.78125 -0.3125 -1.78125 -0.3125q-0.828125 0 -1.5 0.234375q-0.65625 0.234375 -1.171875 0.640625q-0.53125 0.421875 -0.90625 0.984375q-0.375 0.546875 -0.625 1.203125q-0.25 0.65625 -0.375 1.375q-0.125 0.71875 -0.140625 1.46875l0 1.84375q0.015625 0.734375 0.140625 1.453125q0.125 0.71875 0.375 1.375q0.25 0.65625 0.625 1.21875q0.375 0.546875 0.90625 0.96875q0.515625 0.40625 1.1875 0.640625q0.671875 0.234375 1.484375 0.234375q0.96875 0 1.734375 -0.296875q0.78125 -0.3125 1.359375 -0.875q0.5625 -0.546875 0.921875 -1.3125q0.359375 -0.765625 0.46875 -1.6875z"
       fill-rule="nonzero"
       id="path73" />
    <path
       fill="#cfe2f3"
       d="m283.021 141.4357l7.0551147 -8.110245l7.0551147 8.110245l-7.0551147 8.1102295z"
       fill-rule="evenodd"
       id="path74" />
    <path
       stroke="#000000"
       stroke-width="1.0"
       stroke-linejoin="round"
       stroke-linecap="butt"
       d="m283.021 141.4357l7.0551147 -8.110245l7.0551147 8.110245l-7.0551147 8.1102295z"
       fill-rule="evenodd"
       id="path75" />
    <path
       fill="#cfe2f3"
       d="m320.08923 242.59317l7.0551147 -8.1102295l7.0551147 8.1102295l-7.0551147 8.110245z"
       fill-rule="evenodd"
       id="path76" />
    <path
       stroke="#000000"
       stroke-width="1.0"
       stroke-linejoin="round"
       stroke-linecap="butt"
       d="m320.08923 242.59317l7.0551147 -8.1102295l7.0551147 8.1102295l-7.0551147 8.110245z"
       fill-rule="evenodd"
       id="path77" />
    <path
       fill="#cfe2f3"
       d="m447.40683 242.59317l7.0551147 -8.1102295l7.0551147 8.1102295l-7.0551147 8.110245z"
       fill-rule="evenodd"
       id="path78" />
    <path
       stroke="#000000"
       stroke-width="1.0"
       stroke-linejoin="round"
       stroke-linecap="butt"
       d="m447.40683 242.59317l7.0551147 -8.1102295l7.0551147 8.1102295l-7.0551147 8.110245z"
       fill-rule="evenodd"
       id="path79" />
    <path
       fill="#cfe2f3"
       d="m484.95538 143.13649l7.0551147 -8.110245l7.0551147 8.110245l-7.0551147 8.1102295z"
       fill-rule="evenodd"
       id="path80" />
    <path
       stroke="#000000"
       stroke-width="1.0"
       stroke-linejoin="round"
       stroke-linecap="butt"
       d="m484.95538 143.13649l7.0551147 -8.110245l7.0551147 8.110245l-7.0551147 8.1102295z"
       fill-rule="evenodd"
       id="path81" />
    <path
       fill="#000000"
       fill-opacity="0.0"
       d="m290.0761 149.54593l0 93.03937l30.015747 0"
       fill-rule="evenodd"
       id="path82" />
    <path
       stroke="#000000"
       stroke-width="1.0"
       stroke-linejoin="round"
       stroke-linecap="butt"
       d="m290.0761 155.54593l0 87.03937l24.015747 0"
       fill-rule="evenodd"
       id="path83" />
    <path
       fill="#000000"
       stroke="#000000"
       stroke-width="1.0"
       stroke-linecap="butt"
       d="m291.72784 155.54593l-1.6517334 -4.538101l-1.6517334 4.538101z"
       fill-rule="evenodd"
       id="path84" />
    <path
       fill="#000000"
       stroke="#000000"
       stroke-width="1.0"
       stroke-linecap="butt"
       d="m314.09186 244.23703l4.5381165 -1.6517334l-4.5381165 -1.6517334z"
       fill-rule="evenodd"
       id="path85" />
    <path
       fill="#000000"
       fill-opacity="0.0"
       d="m461.51706 242.59317l30.48819 0l0 -91.33858"
       fill-rule="evenodd"
       id="path86" />
    <path
       stroke="#000000"
       stroke-width="1.0"
       stroke-linejoin="round"
       stroke-linecap="butt"
       d="m467.51706 242.59317l24.48819 0l0 -85.33858"
       fill-rule="evenodd"
       id="path87" />
    <path
       fill="#000000"
       stroke="#000000"
       stroke-width="1.0"
       stroke-linecap="butt"
       d="m467.51706 240.94144l-4.538086 1.6517334l4.538086 1.6517334z"
       fill-rule="evenodd"
       id="path88" />
    <path
       fill="#000000"
       stroke="#000000"
       stroke-width="1.0"
       stroke-linecap="butt"
       d="m493.65698 157.2546l-1.6517334 -4.538101l-1.6517334 4.538101z"
       fill-rule="evenodd"
       id="path89" />
    <text
       xml:space="preserve"
       id="text89"
       style="font-size:16px;font-family:Menlo;-inkscape-font-specification:'Menlo, Normal';text-align:start;writing-mode:lr-tb;direction:ltr;white-space:pre;shape-inside:url(#rect90);fill:#000000;stroke-width:10"
       transform="matrix(1.5259362,0,0,1.5259362,-302.08801,7.1316788)"><tspan
         x="643.17578"
         y="51.304688"
         id="tspan2">DUT</tspan></text>
  </g>
</svg>
